<?xml version="1.0" encoding="UTF-8" standalone="no"?>
<!DOCTYPE svg  PUBLIC '-//W3C//DTD SVG 1.1//EN'  'http://www.w3.org/Graphics/SVG/1.1/DTD/svg11.dtd'>
<svg version="1.1" xmlns="http://www.w3.org/2000/svg">
<defs>
<font id="GTWalsheimProBold" horiz-adv-x="635">
<font-face x-height="482" underline-thickness="50" font-family="GT Walsheim Pro Bold" unicode-range="U+0020-00FE" units-per-em="1000" panose-1="2 0 5 3 4 0 0 2 0 3" bbox="-60 -231 1036 1002" ascent="750" font-weight="700" descent="-250" cap-height="700" underline-position="-150"/>
<missing-glyph/>
<glyph glyph-name="space" horiz-adv-x="243" unicode=" "/>
<glyph glyph-name="exclam" horiz-adv-x="338" unicode="!" d="M87 700h164v-458h-164v458zM65 87q0 21 8 39.5t22 32.5t32.5 22t40.5 8t41 -8t33.5 -22t22.5 -32.5t8 -39.5t-8 -39.5t-22.5 -33t-33.5 -22.5t-41 -8t-40.5 8t-32.5 22.5t-22 33t-8 39.5z"/>
<glyph glyph-name="quotedbl" horiz-adv-x="418" unicode='&quot;' d="M240 586v125h129v-125l-33 -154h-63zM49 586v125h128v-125l-32 -154h-64z"/>
<glyph glyph-name="numbersign" horiz-adv-x="590" unicode="#" d="M239 288h103l17 124h-103zM326 180h-102l-26 -180h-111l25 180h-86v108h101l17 124h-88v108h103l25 180h112l-25 -180h103l25 180h111l-25 -180h80v-108h-95l-17 -124h82v-108h-97l-25 -180h-111z"/>
<glyph glyph-name="dollar" horiz-adv-x="606" unicode="$" d="M373 715q52 -6 91 -26.5t64.5 -50t38 -66.5t12.5 -77h-162q0 47 -22.5 74t-64.5 27q-35 0 -60 -18t-25 -54q0 -35 27.5 -55.5t72.5 -36.5q43 -15 87 -32.5t79 -43t57.5 -62t22.5 -88.5q0 -48 -16 -87t-44.5 -67t-68.5 -45t-89 -22v-107h-89v107q-48 6 -88.5 25 t-69.5 50.5t-45.5 74.5t-16.5 97h162q0 -57 31 -89t81 -32q39 0 65.5 22.5t26.5 59.5q0 21 -8.5 35.5t-23 25.5t-34.5 19.5t-43 17.5q-48 18 -91.5 36t-75.5 43.5t-51 61.5t-19 89q0 42 16 76t43 58.5t63.5 39.5t77.5 20v107h89v-107z"/>
<glyph glyph-name="percent" horiz-adv-x="955" unicode="%" d="M618 754l106 -53l-400 -754l-105 53zM227 306q-36 0 -65 11t-49 30t-30.5 44.5t-10.5 53.5v125q0 28 10.5 53.5t30.5 44.5t49 30t65 11t64.5 -11t48.5 -30t31 -44.5t11 -53.5v-125q0 -28 -11 -53.5t-31 -44.5t-48.5 -30t-64.5 -11zM275 570q0 21 -13 36.5t-35 15.5 t-35 -15.5t-13 -36.5v-125q0 -21 13 -36.5t35 -15.5t35 15.5t13 36.5v125zM882 130q0 -28 -11 -53.5t-31 -44.5t-48.5 -30t-64.5 -11t-65 11t-49 30t-30.5 44.5t-10.5 53.5v125q0 28 10.5 53.5t30.5 44.5t49 30t65 11t64.5 -11t48.5 -30t31 -44.5t11 -53.5v-125zM679 130 q0 -21 13 -36.5t35 -15.5t35 15.5t13 36.5v125q0 21 -13 36.5t-35 15.5t-35 -15.5t-13 -36.5v-125z"/>
<glyph glyph-name="ampersand" horiz-adv-x="633" unicode="&amp;" d="M346 357h265v-126h-46q-1 -55 -19 -100.5t-52.5 -77.5t-83.5 -50t-112 -18q-48 0 -94 14t-82.5 41t-59 67.5t-22.5 93.5q0 31 9 56.5t25 45.5t36.5 35t44.5 26q-43 19 -73.5 56t-30.5 99q0 49 20 86t54 61.5t77.5 36.5t91.5 12q65 0 112 -18.5t77 -49t44.5 -71 t14.5 -85.5h-162q0 46 -19 74t-69 28q-35 0 -58 -19t-23 -59q0 -18 5 -34t16.5 -27.5t30.5 -18t48 -6.5v-125q-60 0 -84.5 -27t-24.5 -72q0 -17 7 -33.5t19.5 -29t31.5 -20t43 -7.5q41 0 71.5 30t31.5 86h-60v126z"/>
<glyph glyph-name="quotesingle" horiz-adv-x="224" unicode="&apos;" d="M48 586v125h128v-125l-32 -154h-64z"/>
<glyph glyph-name="parenleft" horiz-adv-x="399" unicode="(" d="M362 637q-30 0 -54 -11t-40.5 -30t-25.5 -44t-9 -53v-454q0 -28 9 -53t25.5 -44t40.5 -30t54 -11v-138q-66 0 -119 22t-90 59.5t-57 88t-20 106.5v454q0 56 20 106.5t57 88t90 59.5t119 22v-138z"/>
<glyph glyph-name="parenright" horiz-adv-x="399" unicode=")" d="M36 775q66 0 119.5 -22t90.5 -59.5t57 -88t20 -106.5v-454q0 -56 -20 -106.5t-57 -88t-90.5 -59.5t-119.5 -22v138q30 0 54.5 11t41 30t25.5 44t9 53v454q0 28 -9 53t-25.5 44t-41 30t-54.5 11v138z"/>
<glyph glyph-name="asterisk" horiz-adv-x="466" unicode="*" d="M78 392l96 118l-134 35l28 83l131 -53l-11 142h91l-11 -142l130 53l28 -83l-134 -35l96 -118l-75 -53l-80 131l-80 -131z"/>
<glyph glyph-name="plus" horiz-adv-x="613" unicode="+" d="M241 71v152h-148v123h148v152h131v-152h148v-123h-148v-152h-131z"/>
<glyph glyph-name="comma" horiz-adv-x="309" unicode="," d="M46 90q0 21 8 39.5t21.5 32t31.5 21.5t39 8q51 0 82 -35.5t31 -92.5t-14 -96.5t-41 -64.5t-65.5 -36t-87.5 -11v62q32 0 54 7.5t37 18.5q14 12 21 26.5t9 29.5q-2 -2 -10 -5t-16 -3q-46 0 -73 29t-27 70z"/>
<glyph glyph-name="hyphen" horiz-adv-x="317" unicode="-" d="M285 236h-253v122h253v-122z"/>
<glyph glyph-name="period" horiz-adv-x="302" unicode="." d="M50 91q0 21 8 39t21.5 31.5t32 21.5t39.5 8t39.5 -8t32 -21.5t21.5 -31.5t8 -39t-8 -39t-21.5 -31.5t-32 -21.5t-39.5 -8t-39.5 8t-32 21.5t-21.5 31.5t-8 39z"/>
<glyph glyph-name="slash" horiz-adv-x="491" unicode="/" d="M359 797l124 -53l-351 -816l-124 53z"/>
<glyph glyph-name="zero" horiz-adv-x="616" unicode="0" d="M41 465q0 51 18.5 96t53 79.5t84 54.5t110.5 20t110.5 -20t84.5 -54.5t54 -79.5t19 -96v-230q0 -51 -19 -96t-54 -79.5t-84.5 -54.5t-110.5 -20t-110.5 20t-84 54.5t-53 79.5t-18.5 96v230zM413 465q0 23 -7.5 43.5t-21 36t-33.5 24.5t-44 9t-43.5 -9t-33 -24.5 t-20.5 -36t-7 -43.5v-230q0 -23 7 -43.5t20.5 -36t33 -24.5t43.5 -9t44 9t33.5 24.5t21 36t7.5 43.5v230z"/>
<glyph glyph-name="one" horiz-adv-x="405" unicode="1" d="M29 577q51 0 83.5 7.5t50.5 22.5t25 38t7 55h143v-700h-165v463h-144v114z"/>
<glyph glyph-name="two" horiz-adv-x="577" unicode="2" d="M45 0q0 85 13.5 143t38.5 98t58.5 68t74.5 53q31 18 57.5 34.5t46.5 33.5t31.5 37.5t11.5 46.5q0 42 -23 60.5t-57 18.5q-38 0 -63.5 -23.5t-25.5 -78.5h-161q0 48 16.5 89t48.5 71t78 47t106 17q48 0 91.5 -12.5t76.5 -38t52.5 -66t19.5 -95.5q0 -44 -19 -80t-46.5 -64 t-59.5 -49.5t-58 -36.5q-36 -24 -59.5 -41.5t-37.5 -32.5t-19.5 -31t-5.5 -37h300v-131h-486v0z"/>
<glyph glyph-name="three" horiz-adv-x="601" unicode="3" d="M194 235q0 -57 29 -88.5t76 -31.5q45 0 69 28t24 64q0 44 -23 70.5t-80 26.5h-63v125h63q54 0 73.5 24t19.5 62q0 40 -22.5 59t-57.5 19q-52 0 -70.5 -28t-18.5 -74h-162q0 45 14.5 85.5t44.5 71t76.5 49t111.5 18.5q48 0 92.5 -12t78 -36.5t53.5 -61.5t20 -86 q0 -59 -30.5 -100t-72.5 -55q24 -9 44.5 -24t36 -36t24.5 -48.5t9 -60.5q0 -50 -20.5 -89t-55.5 -66t-80.5 -41t-95.5 -14q-65 0 -115 18t-84.5 51t-52 79t-17.5 102h162z"/>
<glyph glyph-name="four" horiz-adv-x="611" unicode="4" d="M337 193h-280v507h162v-370h118v193h161v-193h85v-137h-85v-193h-161v193z"/>
<glyph glyph-name="five" unicode="5" d="M69 700h473v-126h-324v-156q10 16 26 28t35.5 20t40 12t40.5 4q58 0 101 -20.5t71.5 -54.5t42.5 -77.5t14 -89.5q0 -52 -18.5 -98.5t-53 -81t-84.5 -55t-113 -20.5q-62 0 -111.5 20.5t-84 55t-53 80.5t-18.5 97h157q0 -49 29.5 -84t80.5 -35q26 0 46.5 9.5t35 26 t22.5 38.5t8 47q0 24 -7.5 45.5t-22 38t-35 26t-46.5 9.5q-36 0 -60.5 -16t-40.5 -48h-151v405z"/>
<glyph glyph-name="six" horiz-adv-x="600" unicode="6" d="M298 -14q-62 0 -111.5 20.5t-84 55t-53 80.5t-18.5 98q0 40 11.5 76.5t31.5 68.5l202 315h182l-140 -210q21 -3 42 -11q48 -6 86 -27t65 -53.5t41 -73t14 -85.5q0 -52 -18.5 -98t-53 -80.5t-84 -55t-112.5 -20.5zM298 121q25 0 46 9.5t35.5 25.5t22.5 38t8 46 q0 25 -8 46.5t-22.5 37.5t-35.5 25.5t-46 9.5q-51 0 -80.5 -34.5t-29.5 -84.5q0 -49 29.5 -84t80.5 -35z"/>
<glyph glyph-name="seven" horiz-adv-x="531" unicode="7" d="M538 700l-298 -700h-173l243 564h-275v136h503z"/>
<glyph glyph-name="eight" horiz-adv-x="616" unicode="8" d="M309 -15q-63 0 -112 17t-82.5 46t-51.5 68.5t-18 83.5q0 28 8.5 54.5t23.5 49t35.5 38.5t45.5 23q-45 17 -70 59t-25 90q0 41 16.5 77.5t48 64t77 43.5t104.5 16q58 0 103.5 -16t77 -43.5t48 -64t16.5 -77.5q0 -48 -25 -90t-70 -59q25 -8 45.5 -24.5t35.5 -38.5t23 -48.5 t8 -54.5q0 -43 -17.5 -81.5t-51 -68t-82 -47t-111.5 -17.5zM309 419q43 0 67 26t24 61t-24 61t-67 26q-45 0 -69 -26t-24 -61t24 -61t69 -26zM309 107q25 0 44.5 8t33 21.5t21 30.5t7.5 36t-7 36.5t-20.5 31t-33.5 21.5t-45 8q-52 0 -79.5 -29t-27.5 -68q0 -19 7.5 -36.5 t21 -30.5t33.5 -21t45 -8z"/>
<glyph glyph-name="nine" horiz-adv-x="600" unicode="9" d="M142 0l140 209q-58 3 -104 23.5t-78 54t-49 78t-17 95.5q0 52 18 98t52.5 80.5t84.5 55t113 20.5q62 0 111.5 -20.5t84 -55t53 -80.5t18.5 -98q0 -41 -11.5 -77.5t-31.5 -67.5l-202 -315h-182zM302 579q-26 0 -46.5 -9.5t-35 -25.5t-22.5 -38t-8 -46q0 -25 8 -46.5 t22.5 -37.5t35 -25.5t46.5 -9.5q51 0 80.5 34.5t29.5 84.5q0 49 -29.5 84t-80.5 35z"/>
<glyph glyph-name="colon" horiz-adv-x="303" unicode=":" d="M50 412q0 21 8 39t21.5 31.5t32 21.5t39.5 8t39.5 -8t32 -21.5t21.5 -31.5t8 -39t-8 -39t-21.5 -31.5t-32 -21.5t-39.5 -8t-39.5 8t-32 21.5t-21.5 31.5t-8 39zM50 91q0 21 8 39t21.5 31.5t32 21.5t39.5 8t40 -8t32.5 -21.5t21.5 -31.5t8 -39t-8 -39t-21.5 -31.5 t-32.5 -21.5t-40 -8t-39.5 8t-32 21.5t-21.5 31.5t-8 39z"/>
<glyph glyph-name="semicolon" horiz-adv-x="309" unicode=";" d="M50 412q0 21 8 39t21.5 31.5t32 21.5t39.5 8t39.5 -8t32 -21.5t21.5 -31.5t8 -39t-8 -39t-21.5 -31.5t-32 -21.5t-39.5 -8t-39.5 8t-32 21.5t-21.5 31.5t-8 39zM50 90q0 21 7.5 39.5t21 32t31.5 21.5t39 8q51 0 82.5 -35.5t31.5 -92.5t-14 -96.5t-41 -64.5t-65.5 -36 t-87.5 -11v62q32 0 54 7.5t37 18.5q14 12 21 26.5t9 29.5q-2 -2 -10 -5t-17 -3q-46 0 -72.5 29t-26.5 70z"/>
<glyph glyph-name="less" horiz-adv-x="613" unicode="&lt;" d="M41 224v120l525 177v-138l-324 -99l324 -99v-139z"/>
<glyph glyph-name="equal" horiz-adv-x="613" unicode="=" d="M93 313v122h427v-122h-427zM93 132v122h427v-122h-427z"/>
<glyph glyph-name="greater" horiz-adv-x="613" unicode="&gt;" d="M48 46v139l323 99l-323 99v138l524 -177v-120z"/>
<glyph glyph-name="question" horiz-adv-x="542" unicode="?" d="M176 218q0 32 4 58t13.5 48t26.5 41t44 37q14 10 29 21t27.5 25t20.5 31t8 38q0 39 -24 57.5t-60 18.5q-35 0 -60.5 -23.5t-25.5 -78.5h-160q0 48 16 89t47.5 71t77.5 47t105 17q48 0 92 -12.5t77 -37.5t53 -62t20 -86q0 -38 -11.5 -66.5t-28.5 -49.5t-35.5 -35.5 t-31.5 -25.5q-19 -15 -31 -27t-19.5 -25t-10.5 -29.5t-3 -40.5h-160zM152 87q0 21 8 39.5t22 32.5t33 22t41 8t41 -8t33 -22t22 -32.5t8 -39.5t-8 -39.5t-22 -33t-33 -22.5t-41 -8t-41 8t-33 22.5t-22 33t-8 39.5z"/>
<glyph glyph-name="at" horiz-adv-x="871" unicode="@" d="M470 -194q-111 0 -195 35t-140.5 93t-85.5 133.5t-29 156.5q0 97 35 174.5t94.5 132t138 83.5t165.5 29q90 0 166.5 -25t131.5 -72t86 -114.5t31 -152.5q0 -80 -14.5 -136t-40.5 -91t-62.5 -51t-80.5 -16q-58 0 -95.5 29.5t-52.5 73.5q-7 -13 -19.5 -25t-28.5 -21 t-34.5 -14.5t-37.5 -5.5q-43 0 -78.5 15.5t-61.5 43t-40.5 64.5t-14.5 79q0 43 15 80t41 64.5t61.5 43t77.5 15.5q19 0 37.5 -5t34.5 -14t28.5 -21t19.5 -25v56h116v-236q0 -51 12.5 -73t39.5 -22q13 0 24.5 9t20 31t13.5 59.5t5 95.5q0 60 -22 107.5t-61.5 80.5t-95 51 t-121.5 18t-123.5 -21t-101 -61.5t-68.5 -99t-25 -133.5q0 -60 20.5 -116.5t62 -101t104.5 -71t148 -26.5q39 0 93.5 9.5t107.5 37.5l43 -89q-32 -18 -65 -30t-65 -18.5t-61 -9.5t-53 -3zM424 121q22 0 40.5 8t31.5 22.5t20 33t7 39.5q0 43 -27 73.5t-72 30.5 q-43 0 -69 -30.5t-26 -73.5q0 -42 26 -72.5t69 -30.5z"/>
<glyph glyph-name="A" horiz-adv-x="660" unicode="A" d="M329 500l-86 -288h170zM480 0l-27 85h-249l-27 -85h-173l250 700h149l253 -700h-176z"/>
<glyph glyph-name="B" horiz-adv-x="633" unicode="B" d="M63 700h290q72 0 116.5 -19.5t69 -48t33 -61.5t8.5 -60q0 -33 -11 -59.5t-29 -46.5t-39.5 -32.5t-42.5 -17.5q17 0 39 -10.5t42 -30t33.5 -49.5t13.5 -69q0 -27 -9 -61t-34 -64t-70 -50.5t-117 -20.5h-293v700zM321 415q30 0 48.5 8t29.5 20.5t15 27.5t4 28q0 12 -3.5 26 t-14 26.5t-29.5 21t-50 8.5h-97v-166h97zM224 296v-172h101q30 0 48.5 8t29.5 20.5t15 27.5t4 30q0 12 -4 27t-14.5 28t-29.5 22t-48 9h-102z"/>
<glyph glyph-name="C" horiz-adv-x="788" unicode="C" d="M757 251q-10 -56 -38.5 -105t-73.5 -85.5t-105 -57.5t-132 -21q-89 0 -158.5 30t-118 80.5t-74 117.5t-25.5 141q0 72 25 138t72.5 117t115.5 81.5t154 30.5q81 0 144.5 -23t108 -62t70.5 -92t34 -113h-169q-6 31 -20.5 57t-37 45.5t-53 30.5t-67.5 11q-51 0 -90.5 -18.5 t-66.5 -49t-41 -70.5t-14 -83q0 -46 14.5 -86.5t43 -71t69 -48t93.5 -17.5q30 0 57 9.5t49.5 26t38.5 39t23 48.5h172z"/>
<glyph glyph-name="D" horiz-adv-x="720" unicode="D" d="M324 700q87 0 154.5 -29.5t114 -78.5t71 -112t24.5 -130t-24 -130t-70.5 -112t-114.5 -78.5t-155 -29.5h-257v700h257zM229 560v-420h87q49 0 87.5 17.5t65 47t40.5 67t14 78.5q0 40 -14 78t-40.5 67.5t-65 47t-87.5 17.5h-87z"/>
<glyph glyph-name="E" horiz-adv-x="555" unicode="E" d="M229 570v-159h265v-127h-265v-154h265v-130h-427v700h427v-130h-265z"/>
<glyph glyph-name="F" horiz-adv-x="550" unicode="F" d="M229 564v-189h265v-133h-265v-242h-162v700h427v-136h-265z"/>
<glyph glyph-name="G" horiz-adv-x="835" unicode="G" d="M455 370h363v-121h-72q-11 -60 -38 -109t-71 -84t-103.5 -54.5t-134.5 -19.5q-88 0 -156.5 30t-115 80.5t-71 117t-24.5 140.5q0 72 25 138.5t72.5 117.5t115.5 81.5t154 30.5q69 0 126.5 -19.5t99.5 -53t67 -78t30 -94.5h-173q-4 21 -16 40t-31.5 33.5t-45.5 23t-58 8.5 q-50 0 -87 -19t-62.5 -51t-38 -73.5t-12.5 -85.5q0 -47 13 -88.5t39.5 -73t67 -50t94.5 -18.5q37 0 66 10.5t50 28.5t34 41.5t17 49.5h-124v121z"/>
<glyph glyph-name="H" horiz-adv-x="699" unicode="H" d="M471 278h-242v-278h-162v700h162v-283h242v283h161v-700h-161v278z"/>
<glyph glyph-name="I" horiz-adv-x="298" unicode="I" d="M67 700h164v-700h-164v700z"/>
<glyph glyph-name="J" horiz-adv-x="583" unicode="J" d="M523 241q0 -125 -67.5 -191.5t-188.5 -66.5q-63 0 -111 20t-80 55t-48 82t-16 102h162q0 -52 23 -86t70 -34t71 31.5t24 87.5v459h161v-459z"/>
<glyph glyph-name="K" horiz-adv-x="659" unicode="K" d="M229 296v-296h-162v700h162v-297l226 297h195l-277 -350l277 -350h-195z"/>
<glyph glyph-name="L" horiz-adv-x="453" unicode="L" d="M428 140v-140h-361v700h162v-560h199z"/>
<glyph glyph-name="M" horiz-adv-x="877" unicode="M" d="M810 0h-158v434l-151 -434h-120l-156 434v-434h-158v700h187l187 -487l185 487h184v-700z"/>
<glyph glyph-name="N" horiz-adv-x="717" unicode="N" d="M489 244v456h161v-700h-169l-252 450v-450h-162v700h169z"/>
<glyph glyph-name="O" horiz-adv-x="805" unicode="O" d="M403 -18q-87 0 -156 30.5t-117 81.5t-73 117.5t-25 138.5t25 138.5t73 117.5t117 81.5t156 30.5t155.5 -30.5t116.5 -81.5t73 -117.5t25 -138.5t-25 -138.5t-73 -117.5t-116.5 -81.5t-155.5 -30.5zM403 128q48 0 86 18.5t64.5 49.5t40.5 71t14 83t-14 83t-40.5 71 t-64.5 49.5t-86 18.5t-86 -18.5t-64.5 -49.5t-40.5 -71t-14 -83t14 -83t40.5 -71t64.5 -49.5t86 -18.5z"/>
<glyph glyph-name="P" unicode="P" d="M67 700h293q58 0 105 -20.5t80.5 -55t51.5 -80.5t18 -97t-18 -97t-51.5 -80.5t-80.5 -55t-105 -20.5h-131v-194h-162v700zM340 326q25 0 46 10t35.5 26.5t22.5 38.5t8 46t-8 46t-22.5 38.5t-35.5 26.5t-46 10h-111v-242h111z"/>
<glyph glyph-name="Q" horiz-adv-x="805" unicode="Q" d="M773 350q0 -53 -14 -102.5t-40 -93t-64 -78t-87 -55.5l60 -81l-142 -72l-84 114q-87 0 -156 30.5t-116.5 81.5t-72.5 117.5t-25 138.5t25 138.5t73 117.5t117 81.5t156 30.5t155.5 -30.5t116.5 -81.5t73 -117.5t25 -138.5zM403 128q48 0 86 18.5t64.5 49.5t40.5 71t14 83 t-14 83t-40.5 71t-64.5 49.5t-86 18.5t-86 -18.5t-64.5 -49.5t-40.5 -71t-14 -83t14 -83t40.5 -71t64.5 -49.5t86 -18.5z"/>
<glyph glyph-name="R" horiz-adv-x="654" unicode="R" d="M340 326q25 0 46 10t35.5 26.5t22.5 38.5t8 46t-8 46t-22.5 38.5t-35.5 26.5t-46 10h-111v-242h111zM67 700h294q58 0 105 -20.5t80.5 -55t51.5 -80.5t18 -97q0 -74 -36.5 -134.5t-102.5 -91.5l140 -221h-188l-124 194h-76v-194h-162v700z"/>
<glyph glyph-name="S" horiz-adv-x="606" unicode="S" d="M200 232q0 -57 31 -89t81 -32q39 0 65.5 22.5t26.5 59.5q0 21 -8.5 35.5t-23 25.5t-34.5 19.5t-43 17.5q-48 18 -91.5 36t-75.5 43.5t-51 61.5t-19 89q0 48 20.5 85t54.5 62t78.5 37.5t92.5 12.5q62 0 109 -18t78 -49t46.5 -71t15.5 -85h-162q0 47 -22.5 74t-64.5 27 q-35 0 -60 -18t-25 -54q0 -35 27.5 -55.5t72.5 -36.5q43 -15 87 -32.5t79 -43t57.5 -62t22.5 -88.5q0 -54 -19.5 -96t-54.5 -70.5t-83 -43t-106 -14.5q-56 0 -104.5 16.5t-84 48.5t-55.5 78.5t-20 106.5h162z"/>
<glyph glyph-name="T" horiz-adv-x="509" unicode="T" d="M173 560h-158v140h479v-140h-159v-560h-162v560z"/>
<glyph glyph-name="U" horiz-adv-x="657" unicode="U" d="M56 700h162v-460q0 -24 8 -45.5t22.5 -37.5t34.5 -25.5t45 -9.5t45.5 9.5t35 25.5t22.5 37.5t8 45.5v460h162v-461q0 -54 -19 -101t-54.5 -81.5t-86 -54.5t-113.5 -20t-113 20t-85.5 54.5t-54.5 81.5t-19 101v461z"/>
<glyph glyph-name="V" horiz-adv-x="644" unicode="V" d="M395 0h-149l-250 700h173l152 -494l151 494h176z"/>
<glyph glyph-name="W" horiz-adv-x="1035" unicode="W" d="M518 440l-139 -440h-133l-247 700h171l143 -459l142 459h125l143 -459l142 459h171l-247 -700h-132z"/>
<glyph glyph-name="X" horiz-adv-x="609" unicode="X" d="M426 700h179l-208 -350l208 -350h-179l-122 225l-122 -225h-178l208 350l-208 350h178l122 -226z"/>
<glyph glyph-name="Y" horiz-adv-x="647" unicode="Y" d="M302 0h-179l129 263l-248 437h189l149 -275l128 275h179z"/>
<glyph glyph-name="Z" horiz-adv-x="632" unicode="Z" d="M45 700h572l-343 -564h332v-136h-589l342 564h-314v136z"/>
<glyph glyph-name="bracketleft" horiz-adv-x="385" unicode="[" d="M67 -223v998h258v-133h-105v-733h105v-132h-258z"/>
<glyph glyph-name="backslash" horiz-adv-x="491" unicode="\" d="M483 -19l-124 -53l-351 816l124 53z"/>
<glyph glyph-name="bracketright" horiz-adv-x="385" unicode="]" d="M60 -223v132h105v732h-105v134h258v-998h-258z"/>
<glyph glyph-name="asciicircum" horiz-adv-x="636" unicode="^" d="M445 300l-127 271l-130 -271h-146l232 450h87l233 -450h-149z"/>
<glyph glyph-name="underscore" horiz-adv-x="583" unicode="_" d="M22 -132v92h540v-92h-540z"/>
<glyph glyph-name="grave" horiz-adv-x="513" unicode="`" d="M83 631l48 106l276 -128l-48 -106z"/>
<glyph glyph-name="a" unicode="a" d="M302 118q26 0 47 10t36 26.5t23.5 39t8.5 47.5t-8.5 47t-23.5 39t-36 27t-47 10t-47 -10t-36 -27t-23.5 -39t-8.5 -47t8.5 -47.5t23.5 -39t36 -26.5t47 -10zM570 482v-482h-153v68q-9 -17 -24 -31.5t-34.5 -25t-42.5 -17t-46 -6.5q-52 0 -95.5 19.5t-74.5 53t-48 80 t-17 100.5t17 100.5t48 80t74.5 53t95.5 19.5q23 0 46 -6.5t42.5 -17.5t34.5 -26t24 -31v69h153z"/>
<glyph glyph-name="b" horiz-adv-x="637" unicode="b" d="M218 0h-153v700h153v-287q9 16 24 31t35 26t42.5 17.5t46.5 6.5q52 0 95.5 -19.5t74.5 -53t48 -80t17 -100.5t-17 -100.5t-48 -80t-74.5 -53t-95.5 -19.5q-24 0 -46.5 6.5t-42.5 17t-35 25t-24 31.5v-68zM334 118q25 0 46 10t36 26.5t23.5 39t8.5 47.5t-8.5 47t-23.5 39 t-36 27t-46 10q-26 0 -47.5 -10t-36.5 -27t-23.5 -39t-8.5 -47t8.5 -47.5t23.5 -39t36.5 -26.5t47.5 -10z"/>
<glyph glyph-name="c" horiz-adv-x="575" unicode="c" d="M388 293q-5 32 -26.5 52t-68.5 20q-27 0 -47.5 -10t-33.5 -27t-19.5 -39.5t-6.5 -47.5t6.5 -47.5t20 -39.5t35 -27t51.5 -10q40 0 60 16.5t30 47.5h153q-6 -41 -24 -76.5t-49 -61.5t-75.5 -41t-101.5 -15q-63 0 -111.5 21t-81.5 56t-49.5 81t-16.5 96t16.5 96t49.5 81 t81.5 56t111.5 21q61 0 106 -17t75.5 -45t47 -64.5t20.5 -75.5h-153z"/>
<glyph glyph-name="d" unicode="d" d="M302 118q26 0 47 10t36 26.5t23.5 39t8.5 47.5t-8.5 47t-23.5 39t-36 27t-47 10t-47 -10t-36 -27t-23.5 -39t-8.5 -47t8.5 -47.5t23.5 -39t36 -26.5t47 -10zM417 68q-9 -17 -24 -31.5t-34.5 -25t-42.5 -17t-46 -6.5q-52 0 -95.5 19.5t-74.5 53t-48 80t-17 100.5t17 100.5 t48 80t74.5 53t95.5 19.5q23 0 46 -6.5t42.5 -17.5t34.5 -26t24 -31v287h153v-700h-153v68z"/>
<glyph glyph-name="e" horiz-adv-x="577" unicode="e" d="M186 204q1 -22 6.5 -41.5t18 -34t32.5 -23t50 -8.5q40 0 60.5 16t28.5 39h150q-5 -34 -23.5 -64t-49 -52.5t-72 -35.5t-93.5 -13q-63 0 -111.5 18.5t-81.5 52.5t-50 80.5t-17 102.5q0 53 16.5 99t49 80.5t80 54.5t110.5 20q57 0 102.5 -18t78 -48t50 -70t17.5 -84 q0 -15 -0.5 -32t-4.5 -39h-347zM289 393q-45 0 -74 -26t-29 -75h202q0 47 -27.5 74t-71.5 27z"/>
<glyph glyph-name="f" horiz-adv-x="380" unicode="f" d="M368 588q-12 3 -22.5 4.5t-24.5 1.5q-13 0 -25 -1.5t-21 -8t-14.5 -18.5t-5.5 -33v-51h113v-114h-112v-368h-153v368h-87v114h87v42q0 66 17.5 103t44.5 56t59 23.5t61 4.5q27 0 48 -4t35 -9v-110z"/>
<glyph glyph-name="g" horiz-adv-x="633" unicode="g" d="M302 364q-26 0 -47 -10t-36 -27t-23 -39t-8 -47t8 -47.5t23 -39t36 -26.5t47 -10t47.5 10t36.5 26.5t23.5 39t8.5 47.5t-8.5 47t-23.5 39t-36.5 27t-47.5 10zM571 3q0 -66 -19 -109.5t-57 -72.5q-34 -26 -81 -39t-114 -13q-68 0 -113.5 15t-75.5 41q-32 27 -50 62.5 t-20 75.5h153q3 -31 29.5 -56t76.5 -25q54 0 86 26t32 83v81q-20 -33 -60 -54t-87 -21q-52 0 -95.5 18t-74.5 50.5t-48.5 77t-17.5 98.5t16.5 100.5t47.5 80t74 53t96 19.5q46 0 87.5 -21.5t61.5 -59.5v69h153v-479z"/>
<glyph glyph-name="h" horiz-adv-x="597" unicode="h" d="M65 700h148v-288q20 38 60 60t96 22q47 0 79 -14.5t52 -40.5q23 -28 31 -65t8 -89v-285h-148v247q0 52 -18.5 84.5t-66.5 32.5q-47 0 -70 -33t-23 -89v-242h-148v700z"/>
<glyph glyph-name="i" horiz-adv-x="283" unicode="i" d="M43 642q0 41 28 69t70 28q21 0 39 -7.5t31.5 -20.5t21 -31t7.5 -38t-7.5 -37.5t-21 -31t-31.5 -21t-39 -7.5t-38.5 7.5t-31 21t-21 31t-7.5 37.5zM65 482h153v-482h-153v482z"/>
<glyph glyph-name="j" horiz-adv-x="283" unicode="j" d="M43 642q0 41 28 69t70 28q21 0 39 -7.5t31.5 -20.5t21 -31t7.5 -38t-7.5 -37.5t-21 -31t-31.5 -21t-39 -7.5t-38.5 7.5t-31 21t-21 31t-7.5 37.5zM218 -75q0 -47 -11 -77.5t-29.5 -47.5t-43 -23.5t-52.5 -6.5q-27 0 -54.5 3.5t-41.5 8.5v117q14 -2 22 -2.5t17 -0.5 q40 0 40 49v537h153v-557z"/>
<glyph glyph-name="k" horiz-adv-x="554" unicode="k" d="M361 241l187 -241h-182l-148 202v-202h-153v700h153v-422l149 204h182z"/>
<glyph glyph-name="l" horiz-adv-x="283" unicode="l" d="M65 700h153v-700h-153v700z"/>
<glyph glyph-name="m" horiz-adv-x="878" unicode="m" d="M671 0v260q0 49 -17.5 76.5t-56.5 27.5q-17 0 -32 -6t-26 -20t-17 -37.5t-6 -58.5v-242h-148v261q0 49 -17 76t-55 27q-18 0 -33 -6t-26 -20.5t-17.5 -38.5t-6.5 -60v-239h-148v482h148v-70q16 34 52 58t87 24q63 0 97 -25t49 -62q19 38 58 62.5t93 24.5q52 0 85 -16.5 t52 -44t25.5 -63t6.5 -73.5v-297h-147z"/>
<glyph glyph-name="n" horiz-adv-x="607" unicode="n" d="M65 482h153v-70q20 39 60.5 60.5t97.5 21.5q47 0 81 -14.5t54 -40.5q23 -28 30.5 -64.5t7.5 -88.5v-286h-153v247q0 52 -18.5 84.5t-66.5 32.5q-47 0 -70 -33t-23 -89v-242h-153v482z"/>
<glyph glyph-name="o" horiz-adv-x="599" unicode="o" d="M299 -13q-62 0 -111.5 20.5t-84 55t-53 80.5t-18.5 98t18.5 98t53 80.5t84 55t111.5 20.5q63 0 112.5 -20.5t84 -55t53 -80.5t18.5 -98t-18.5 -98t-53 -80.5t-84 -55t-112.5 -20.5zM299 118q26 0 47.5 9.5t36.5 26.5t23.5 39t8.5 48q0 25 -8.5 47.5t-23.5 39t-36.5 26.5 t-47.5 10t-47 -10t-36 -26.5t-23 -39t-8 -47.5q0 -26 8 -48t23 -39t36 -26.5t47 -9.5z"/>
<glyph glyph-name="p" horiz-adv-x="637" unicode="p" d="M334 364q-26 0 -47.5 -10t-36.5 -26.5t-23.5 -39t-8.5 -47.5t8.5 -47.5t23.5 -39t36.5 -26.5t47.5 -10q25 0 46 10t36 26.5t23.5 39t8.5 47.5t-8.5 47.5t-23.5 39t-36 26.5t-46 10zM218 413q9 16 24 31t35 26t42.5 17.5t46.5 6.5q52 0 95.5 -19.5t74.5 -53t48 -80 t17 -100.5t-17 -100.5t-48 -80t-74.5 -53t-95.5 -19.5q-24 0 -46.5 6.5t-42.5 17.5t-35 25.5t-24 31.5v-287h-153v700h153v-69z"/>
<glyph glyph-name="q" horiz-adv-x="637" unicode="q" d="M419 482h152v-700h-152v287q-9 -17 -24.5 -31.5t-35 -25.5t-42.5 -17.5t-46 -6.5q-52 0 -95.5 19.5t-74.5 53t-48 80t-17 100.5t17 100.5t48 80t74.5 53t95.5 19.5q23 0 46 -6.5t42.5 -17.5t35 -26t24.5 -31v69zM303 364q-26 0 -47 -10t-36 -26.5t-23 -39t-8 -47.5 t8 -47.5t23 -39t36 -26.5t47 -10t47.5 10t36.5 26.5t23.5 39t8.5 47.5t-8.5 47.5t-23.5 39t-36.5 26.5t-47.5 10z"/>
<glyph glyph-name="r" horiz-adv-x="417" unicode="r" d="M411 343q-16 4 -27 5.5t-27 1.5q-63 0 -101 -37t-38 -125v-188h-153v482h153v-78q17 34 56.5 60t90.5 26q27 0 46 -8v-139z"/>
<glyph glyph-name="s" horiz-adv-x="510" unicode="s" d="M318 284q32 -9 60 -19.5t49 -26t33.5 -38.5t12.5 -58q0 -43 -17 -72.5t-47 -48t-69.5 -26.5t-84.5 -8q-103 0 -162.5 45t-59.5 129h150q0 -38 21.5 -54.5t55.5 -16.5q28 0 45.5 10.5t17.5 34.5q0 14 -7.5 22.5t-23 16t-40 15t-58.5 18.5q-30 9 -57 19.5t-47.5 25.5 t-32.5 38t-12 58q0 75 57.5 111t155.5 36q52 0 91.5 -12.5t65 -34.5t38.5 -52t13 -64h-151q0 30 -15.5 46.5t-47.5 16.5q-23 0 -40 -10.5t-17 -32.5q0 -13 8 -21.5t23.5 -15.5t38.5 -14t53 -17z"/>
<glyph glyph-name="t" horiz-adv-x="383" unicode="t" d="M366 0q-17 -3 -42.5 -5.5t-59.5 -2.5q-27 0 -57 4t-55.5 20.5t-42 51t-16.5 94.5v206h-76v114h76v143h152v-143h110v-114h-110v-172q0 -27 5 -43t14 -24.5t21 -11.5t26 -3t29 0.5t26 2.5v-117z"/>
<glyph glyph-name="u" horiz-adv-x="607" unicode="u" d="M542 482v-482h-153v69q-20 -38 -60.5 -59.5t-97.5 -21.5q-47 0 -81 14.5t-54 40.5q-23 28 -30 64.5t-7 88.5v286h152v-247q0 -52 18.5 -84.5t66.5 -32.5t70.5 33t22.5 89v242h153z"/>
<glyph glyph-name="v" horiz-adv-x="551" unicode="v" d="M158 482l117 -303l118 303h160l-218 -482h-122l-215 482h160z"/>
<glyph glyph-name="w" horiz-adv-x="803" unicode="w" d="M402 307l-99 -307h-124l-180 482h158l89 -287l85 287h141l85 -287l89 287h158l-180 -482h-124z"/>
<glyph glyph-name="x" horiz-adv-x="514" unicode="x" d="M513 0h-177l-79 140l-79 -140h-177l166 243l-163 239h177l76 -136l76 136h177l-162 -239z"/>
<glyph glyph-name="y" horiz-adv-x="615" unicode="y" d="M303 -231q-59 0 -102.5 12t-75.5 38q-29 24 -47.5 59.5t-18.5 84.5h153q2 -41 28.5 -62.5t64.5 -21.5q44 0 69 21.5t25 77.5v99q-20 -39 -59.5 -60t-94.5 -21q-48 0 -83.5 16t-55.5 42q-23 28 -30 62.5t-7 86.5v279h152v-247q0 -52 18.5 -84.5t66.5 -32.5t70.5 33 t22.5 89v242h153v-494q0 -57 -18 -99t-49 -68q-32 -27 -75.5 -39.5t-106.5 -12.5z"/>
<glyph glyph-name="z" horiz-adv-x="480" unicode="z" d="M467 482l-212 -352h205v-130h-442l213 352h-200v130h436z"/>
<glyph glyph-name="braceleft" horiz-adv-x="477" unicode="{" d="M410 775v-124h-42q-20 0 -33 -7t-21 -18.5t-11 -26t-3 -29.5v-188q0 -32 -11.5 -53.5t-27 -34.5t-32.5 -19t-28 -7q11 -2 28 -7t32.5 -18.5t27 -36t11.5 -58.5v-167q0 -14 3 -28.5t11 -26t21 -19t33 -7.5h42v-123h-101q-34 0 -63.5 10t-51.5 30.5t-34.5 50t-12.5 68.5 v179q0 24 -8.5 40t-21 26t-28 14.5t-29.5 4.5v135q14 0 29.5 4t28 13.5t21 25t8.5 37.5v200q0 39 12.5 69t34.5 50t51.5 30.5t63.5 10.5h101z"/>
<glyph glyph-name="bar" horiz-adv-x="287" unicode="|" d="M81 -223v998h127v-998h-127z"/>
<glyph glyph-name="braceright" horiz-adv-x="477" unicode="}" d="M168 775q34 0 63.5 -10.5t51.5 -30.5t34.5 -50t12.5 -69v-200q0 -22 8 -37.5t21 -25t28.5 -13.5t29.5 -4v-135q-14 0 -29.5 -4.5t-28.5 -14.5t-21 -26t-8 -40v-179q0 -39 -12.5 -68.5t-34.5 -50t-51.5 -30.5t-63.5 -10h-101v123h41q20 0 33.5 7.5t21 19t10.5 26t3 28.5 v167q0 36 11 58.5t27 36t33 18.5t28 7q-11 1 -28 7t-33 19t-27 34.5t-11 53.5v188q0 15 -3 29.5t-10.5 26t-21 18.5t-33.5 7h-41v124h101z"/>
<glyph glyph-name="asciitilde" horiz-adv-x="562" unicode="~" d="M35 313q28 33 61 46t61 13q30 0 63 -9.5t67 -22.5l64 -24t55 -12q37 0 67.5 17.5t52.5 37.5v-120q-27 -33 -60 -46t-62 -13q-32 0 -60.5 9.5t-57.5 23.5t-62 24.5t-72 10.5q-34 0 -64 -17.5t-53 -37.5v120z"/>
<glyph glyph-name="nonbreakingspace" horiz-adv-x="250" unicode=" "/>
<glyph glyph-name="exclamdown" horiz-adv-x="338" unicode="¡" d="M68 394q0 21 8 39t21.5 32t32.5 22t40 8t40 -8t32.5 -22t21.5 -32t8 -39t-8 -39t-21.5 -32t-32.5 -22t-40 -8t-40 8t-32.5 22t-21.5 32t-8 39zM88 237h164v-455h-164v455z"/>
<glyph glyph-name="cent" horiz-adv-x="606" unicode="¢" d="M400 370q-5 32 -26.5 52t-68.5 20q-27 0 -47.5 -10t-33.5 -27t-19.5 -39.5t-6.5 -47.5t6.5 -47.5t20 -39.5t35 -27t51.5 -10q40 0 60 17t30 47h153q-5 -37 -20.5 -69t-41 -57.5t-61.5 -42t-82 -22.5v-109h-89v109q-53 7 -93 30t-67 57t-41 76t-14 88q0 45 14 87.5 t41 76.5t67 57t93 30v110h89v-110q49 -6 86 -24.5t62 -45.5t39 -60.5t17 -68.5h-153z"/>
<glyph glyph-name="sterling" horiz-adv-x="628" unicode="£" d="M266 500v-18t0.5 -29t0.5 -32.5v-27.5h145v-88h-145q-1 -25 -2 -51.5t-4 -46.5q-2 -27 -6.5 -47t-12.5 -29h315v-131h-496v110q30 30 36 92q4 21 5.5 49t2.5 54h-70v88h70v26t-0.5 32t-0.5 29.5v19.5q0 46 19 85.5t52.5 68.5t79 45t99.5 16q55 0 101 -17.5t79 -48.5 t51.5 -74t18.5 -93h-162q0 42 -21.5 69t-69.5 27q-38 0 -61.5 -20t-23.5 -58z"/>
<glyph glyph-name="currency" horiz-adv-x="757" unicode="¤" d="M502 154q-61 -38 -143 -38q-80 0 -142 39l-74 -74l-70 70l73 72q-22 32 -34 69t-12 78t12 78t33 69l-71 72l69 70l73 -74q30 20 66 30.5t77 10.5t76.5 -10.5t65.5 -30.5l74 74l70 -70l-73 -73q23 -31 35 -68t12 -78q0 -85 -46 -148l71 -71l-69 -70zM359 247q26 0 47.5 10 t36.5 26.5t23.5 39t8.5 47.5t-8.5 47.5t-23.5 39.5t-36.5 26.5t-47.5 9.5t-47 -9.5t-36 -26.5t-23 -39.5t-8 -47.5t8 -47.5t23 -39t36 -26.5t47 -10z"/>
<glyph glyph-name="yen" horiz-adv-x="630" unicode="¥" d="M165 700l151 -275l149 275h188l-237 -394h116v-88h-138v-57h138v-88h-138v-73h-154v73h-136v88h136v57h-136v88h110l-237 394h188z"/>
<glyph glyph-name="brokenbar" horiz-adv-x="287" unicode="¦" d="M80 341v434h128v-434h-128zM208 217v-440h-128v440h128z"/>
<glyph glyph-name="section" horiz-adv-x="575" unicode="§" d="M412 258q0 24 -10.5 39t-30.5 27q-20 11 -47.5 20.5t-61.5 20.5q-18 -1 -35.5 -7t-30.5 -16.5t-21 -26t-8 -35.5q0 -25 13 -42t35 -30q22 -12 48 -21t52 -17q19 1 36.5 8t31 18.5t21.5 27t8 34.5zM269 60q-42 14 -83 30.5t-74 39.5t-53.5 55t-20.5 77q0 58 27 96.5 t84 58.5q-38 25 -58 60t-20 84q0 43 18.5 76.5t50 56t73 34.5t86.5 12q53 0 95 -15.5t71.5 -43t45 -64.5t15.5 -80h-137q0 45 -25 71.5t-66 26.5q-37 0 -63.5 -18t-26.5 -53t28 -54t69 -33t83 -30t76.5 -38.5t56 -55t21.5 -79.5q0 -30 -9 -56t-25 -46.5t-36.5 -34 t-42.5 -18.5q38 -25 59 -60.5t21 -83.5q0 -43 -18 -77.5t-49 -58.5t-73.5 -37t-91.5 -13q-50 0 -92.5 15t-74 42.5t-49 66.5t-17.5 87h139q0 -47 27 -74.5t70 -27.5q38 0 64.5 19t26.5 54t-29 54.5t-73 34.5z"/>
<glyph glyph-name="dieresis" horiz-adv-x="582" unicode="¨" d="M81 616q0 19 7 36t19.5 29.5t29 19.5t35.5 7t36 -7t30 -19.5t20 -29.5t7 -36q0 -18 -7 -34.5t-20 -29t-30 -19.5t-36 -7t-35.5 7t-29 19.5t-19.5 29t-7 34.5zM321 616q0 19 7 36t19.5 29.5t29 19.5t36.5 7q19 0 36 -7t29.5 -19.5t19.5 -29.5t7 -36q0 -37 -26.5 -63.5 t-65.5 -26.5t-65.5 26.5t-26.5 63.5z"/>
<glyph glyph-name="copyright" horiz-adv-x="808" unicode="©" d="M404 -18q-87 0 -156 30.5t-117 81.5t-73 117.5t-25 138.5t25 138.5t73 117.5t117 81.5t156 30.5t156 -30.5t117 -81.5t73 -117.5t25 -138.5t-25 -138.5t-73 -117.5t-117 -81.5t-156 -30.5zM404 65q64 0 114.5 23.5t85.5 63.5t53.5 91t18.5 107q0 55 -18.5 106.5 t-53.5 91.5t-85.5 63.5t-114.5 23.5t-114.5 -23.5t-85.5 -63.5t-53.5 -91.5t-18.5 -106.5q0 -56 18.5 -107t53.5 -91t85.5 -63.5t114.5 -23.5zM597 295q-6 -30 -21.5 -56t-39.5 -45.5t-56 -30.5t-70 -11q-48 0 -85.5 16t-64 43.5t-40 63.5t-13.5 76q0 39 13.5 74.5t39 62.5 t62 43.5t83.5 16.5q44 0 77.5 -12t57.5 -33t38 -49.5t18 -61.5h-94q-8 32 -31.5 53.5t-65.5 21.5q-25 0 -44.5 -9.5t-33 -26t-20.5 -37.5t-7 -43q0 -48 29 -82.5t81 -34.5q35 0 59 17.5t32 43.5h96z"/>
<glyph glyph-name="ordfeminine" unicode="ª" d="M302 118q26 0 47 10t36 26.5t23.5 39t8.5 47.5t-8.5 47t-23.5 39t-36 27t-47 10t-47 -10t-36 -27t-23.5 -39t-8.5 -47t8.5 -47.5t23.5 -39t36 -26.5t47 -10zM570 482v-482h-153v68q-9 -17 -24 -31.5t-34.5 -25t-42.5 -17t-46 -6.5q-52 0 -95.5 19.5t-74.5 53t-48 80 t-17 100.5t17 100.5t48 80t74.5 53t95.5 19.5q23 0 46 -6.5t42.5 -17.5t34.5 -26t24 -31v69h153z"/>
<glyph glyph-name="guillemotleft" horiz-adv-x="512" unicode="«" d="M250 78l-213 173v80l213 173v-133l-103 -80l103 -80v-133zM470 78l-213 173v80l213 173v-133l-103 -80l103 -80v-133z"/>
<glyph glyph-name="logicalnot" horiz-adv-x="613" unicode="¬" d="M390 313h-297v122h427v-301h-130v179z"/>
<glyph glyph-name="softhyphen" horiz-adv-x="294" unicode="­" d="M264 236h-234v97h234v-97z"/>
<glyph glyph-name="registered" horiz-adv-x="808" unicode="®" d="M404 -18q-87 0 -156 30.5t-117 81.5t-73 117.5t-25 138.5t25 138.5t73 117.5t117 81.5t156 30.5t156 -30.5t117 -81.5t73 -117.5t25 -138.5t-25 -138.5t-73 -117.5t-117 -81.5t-156 -30.5zM404 65q64 0 114.5 23.5t85.5 63.5t53.5 91t18.5 107q0 55 -18.5 106.5 t-53.5 91.5t-85.5 63.5t-114.5 23.5t-114.5 -23.5t-85.5 -63.5t-53.5 -91.5t-18.5 -106.5q0 -56 18.5 -107t53.5 -91t85.5 -63.5t114.5 -23.5zM421 351q27 0 42.5 18.5t15.5 44.5t-15.5 45.5t-42.5 19.5h-65v-128h65zM260 164v392h177q32 0 58.5 -11.5t45 -31t28.5 -45 t10 -54.5q0 -42 -20.5 -75.5t-57.5 -50.5l78 -124h-109l-70 109h-44v-109h-96z"/>
<glyph glyph-name="macron" horiz-adv-x="519" unicode="¯" d="M443 705h-368v115h368v-115z"/>
<glyph glyph-name="degree" horiz-adv-x="344" unicode="°" d="M324 574q0 -32 -12 -59.5t-32.5 -48t-48 -32.5t-59.5 -12t-59.5 12t-48 32.5t-32.5 48t-12 59.5t12 59.5t32.5 48t48 32.5t59.5 12t59.5 -12t48 -32.5t32.5 -48t12 -59.5zM230 574q0 23 -17.5 41t-40.5 18t-40.5 -18t-17.5 -41q0 -24 17.5 -41t40.5 -17t40.5 17t17.5 41z "/>
<glyph glyph-name="plusminus" horiz-adv-x="613" unicode="±" d="M217 219v153h-149v122h149v153h130v-153h149v-122h-149v-153h-130zM68 0v122h428v-122h-428z"/>
<glyph glyph-name="twosuperior" horiz-adv-x="397" unicode="²" d="M54 315q0 48 7.5 80.5t20.5 55t31.5 38t41.5 29.5q41 23 62.5 39t21.5 41q0 20 -10.5 28.5t-25.5 8.5q-18 0 -29 -11.5t-11 -39.5h-107q0 24 8.5 46.5t26 40t45.5 28t67 10.5q27 0 52.5 -6.5t45 -20.5t31.5 -36.5t12 -53.5q0 -23 -8.5 -41.5t-22.5 -34t-31.5 -28 t-35.5 -22.5q-19 -11 -32 -19.5t-21.5 -16t-12 -15t-3.5 -17.5h164v-83h-287v0z"/>
<glyph glyph-name="threesuperior" horiz-adv-x="404" unicode="³" d="M154 445q0 -58 47 -58q21 0 31.5 14t10.5 31q0 22 -11 33.5t-37 11.5h-41v79h41q26 0 35.5 10.5t9.5 29.5q0 20 -10 29.5t-27 9.5q-24 0 -32 -14t-8 -37h-107q0 23 7 45.5t24 40t45 28.5t71 11q28 0 54 -6t45.5 -19t31.5 -34t12 -50q0 -32 -18.5 -55.5t-41.5 -30.5 q26 -8 45 -32.5t19 -60.5q0 -29 -12 -50.5t-32.5 -36t-46.5 -21.5t-54 -7q-42 0 -72 10.5t-49 29.5t-28 44.5t-9 54.5h107z"/>
<glyph glyph-name="acute" horiz-adv-x="513" unicode="´" d="M105 503l-48 106l276 128l48 -106z"/>
<glyph glyph-name="uni00B5" horiz-adv-x="613" unicode="µ" d="M65 482h152v-249q1 -51 19.5 -83t65.5 -32q48 0 70.5 33t22.5 89v242h153v-482h-153v69q-39 -71 -137 -79q-23 0 -41 6v-214h-152v700z"/>
<glyph glyph-name="paragraph" horiz-adv-x="679" unicode="¶" d="M238 298q-47 0 -88 14t-71 40.5t-47.5 65t-17.5 87.5q0 61 24 101.5t60.5 65t80 35t81.5 10.5h363v-107h-56v-776h-120v776h-88v-776h-121v464z"/>
<glyph glyph-name="periodcentered" horiz-adv-x="296" unicode="·" d="M47 312q0 21 7.5 39t21 31.5t32 21.5t39.5 8q44 0 73 -29t29 -71t-29 -71t-73 -29q-21 0 -39.5 8t-32 21.5t-21 31.5t-7.5 39z"/>
<glyph glyph-name="cedilla" horiz-adv-x="473" unicode="¸" d="M144 12h78v-67q13 15 42 15q16 0 31.5 -6.5t26.5 -18.5t18 -28.5t7 -35.5t-7 -37t-20.5 -32.5t-34 -23t-47.5 -8.5q-14 0 -32 4.5t-34 15t-28 28.5t-15 45h74q3 -14 12 -22t23 -8q15 0 24.5 10.5t9.5 27.5q0 15 -9.5 24.5t-23.5 9.5q-21 0 -30 -16h-65v123z"/>
<glyph glyph-name="onesuperior" horiz-adv-x="298" unicode="¹" d="M46 630q29 0 47.5 4.5t29 13.5t14.5 22t4 30h92v-385h-108v243h-79v72z"/>
<glyph glyph-name="ordmasculine" horiz-adv-x="599" unicode="º" d="M299 -13q-62 0 -111.5 20.5t-84 55t-53 80.5t-18.5 98t18.5 98t53 80.5t84 55t111.5 20.5q63 0 112.5 -20.5t84 -55t53 -80.5t18.5 -98t-18.5 -98t-53 -80.5t-84 -55t-112.5 -20.5zM299 118q26 0 47.5 9.5t36.5 26.5t23.5 39t8.5 48q0 25 -8.5 47.5t-23.5 39t-36.5 26.5 t-47.5 10t-47 -10t-36 -26.5t-23 -39t-8 -47.5q0 -26 8 -48t23 -39t36 -26.5t47 -9.5z"/>
<glyph glyph-name="guillemotright" horiz-adv-x="512" unicode="»" d="M262 211l102 80l-102 80v133l213 -173v-80l-213 -173v133zM42 211l102 80l-102 80v133l213 -173v-80l-213 -173v133z"/>
<glyph glyph-name="onequarter" horiz-adv-x="955" unicode="¼" d="M560 754l106 -53l-400 -754l-105 53zM56 630q29 0 48 4.5t29.5 13.5t14.5 22t4 30h92v-385h-109v243h-79v72zM733 100h-163v285h107v-197h56v100h107v-100h42v-88h-42v-100h-107v100z"/>
<glyph glyph-name="onehalf" horiz-adv-x="955" unicode="½" d="M566 754l105 -53l-399 -754l-106 53zM62 630q29 0 48 4.5t29.5 13.5t14.5 22t4 30h91v-385h-108v243h-79v72zM573 0q0 48 7.5 80.5t20.5 55t31.5 38t41.5 29.5q41 23 62.5 39t21.5 41q0 20 -10.5 28.5t-25.5 8.5q-18 0 -29.5 -11.5t-11.5 -39.5h-107q0 24 8.5 46.5 t26.5 40t45.5 28t66.5 10.5q27 0 52.5 -6.5t45 -20.5t31.5 -36.5t12 -53.5q0 -23 -8.5 -41.5t-22.5 -34t-31.5 -28t-35.5 -22.5q-19 -11 -32 -19.5t-21 -16t-11.5 -15t-3.5 -17.5h164v-83h-287z"/>
<glyph glyph-name="threequarters" horiz-adv-x="955" unicode="¾" d="M573 754l105 -53l-399 -754l-106 53zM140 445q0 -58 47 -58q21 0 31 14t10 31q0 22 -10.5 33.5t-36.5 11.5h-41v79h40q27 0 36.5 10.5t9.5 29.5q0 20 -10 29.5t-27 9.5q-24 0 -32 -14t-8 -37h-107q0 23 7 45.5t23.5 40t45 28.5t70.5 11q28 0 54 -6t45.5 -19t31.5 -34 t12 -50q0 -32 -18.5 -55.5t-41.5 -30.5q26 -8 45 -32.5t19 -60.5q0 -29 -12 -50.5t-32 -36t-46 -21.5t-54 -7q-42 0 -72 10.5t-49 29.5t-28 44.5t-9 54.5h107zM738 100h-163v285h107v-197h56v100h107v-100h42v-88h-42v-100h-107v100z"/>
<glyph glyph-name="questiondown" horiz-adv-x="542" unicode="¿" d="M390 398q0 -21 -8 -39.5t-22 -33t-33 -22.5t-41 -8t-41 8t-33 22.5t-22 33t-8 39.5t8 39.5t22 33t33 22.5t41 8t41 -8t33 -22.5t22 -33t8 -39.5zM366 266q0 -32 -4 -58t-14 -48t-26.5 -40.5t-43.5 -36.5q-14 -10 -29 -21.5t-27.5 -25.5t-20.5 -31t-8 -38q0 -38 24 -56.5 t60 -18.5q35 0 60.5 23.5t25.5 77.5h160q0 -48 -16 -88.5t-47.5 -70.5t-77.5 -47t-105 -17q-48 0 -92 12.5t-77 37.5t-53 62t-20 86q0 38 11.5 66t28.5 49t35 36t32 26q19 15 31 27t19.5 25t10.5 29t3 40h160z"/>
<glyph glyph-name="Agrave" horiz-adv-x="660" unicode="À" d="M181 865l48 106l276 -128l-48 -106zM243 212h170l-84 288zM656 0h-176l-27 85h-249l-27 -85h-173l250 700h149z"/>
<glyph glyph-name="Aacute" horiz-adv-x="660" unicode="Á" d="M217 727l-49 106l276 128l49 -106zM243 212h170l-84 288zM656 0h-176l-27 85h-249l-27 -85h-173l250 700h149z"/>
<glyph glyph-name="Acircumflex" horiz-adv-x="660" unicode="Â" d="M329 993l197 -164l-76 -84l-120 107l-120 -106l-76 83zM243 212h170l-84 288zM656 0h-176l-27 85h-249l-27 -85h-173l250 700h149z"/>
<glyph glyph-name="Atilde" horiz-adv-x="660" unicode="Ã" d="M400 884q25 0 40.5 13.5t29.5 32.5l80 -70q-28 -45 -66 -64t-77 -19q-28 0 -49.5 7.5t-39 16t-33 16t-30.5 7.5q-25 0 -39.5 -13t-28.5 -33l-78 77q28 41 64.5 58.5t75.5 17.5q28 0 49 -7.5t38.5 -16t32.5 -16t31 -7.5zM243 212h170l-84 288zM656 0h-176l-27 85h-249 l-27 -85h-173l250 700h149z"/>
<glyph glyph-name="Adieresis" horiz-adv-x="660" unicode="Ä" d="M114 852q0 19 7.5 36.5t20 30t29.5 20t37 7.5t37.5 -7.5t30.5 -20t20.5 -30t7.5 -36.5t-7.5 -36t-20.5 -29.5t-30.5 -20t-37.5 -7.5t-37 7.5t-29.5 20t-20 29.5t-7.5 36zM355 852q0 39 27 66.5t67 27.5q20 0 37.5 -7.5t30 -20t20 -30t7.5 -36.5t-7.5 -36t-20 -29.5 t-30 -20t-37.5 -7.5t-37 7.5t-30 20t-20 29.5t-7 36zM243 212h170l-84 288zM656 0h-176l-27 85h-249l-27 -85h-173l250 700h149z"/>
<glyph glyph-name="Aring" horiz-adv-x="660" unicode="Å" d="M330 1002q28 0 52.5 -11t42.5 -29.5t28.5 -43t10.5 -51.5t-10.5 -51.5t-28.5 -43t-42.5 -29t-52.5 -10.5t-52.5 10.5t-42.5 29t-28.5 43t-10.5 51.5q0 28 10.5 52.5t28.5 43t42.5 29t52.5 10.5zM330 920q-22 0 -36.5 -15.5t-14.5 -37.5q0 -20 15 -35t36 -15t36 15t15 36 t-14.5 36.5t-36.5 15.5zM243 212h170l-84 288zM656 0h-176l-27 85h-249l-27 -85h-173l250 700h149z"/>
<glyph glyph-name="AE" horiz-adv-x="919" unicode="Æ" d="M427 213v342l-156 -342h156zM589 570v-159h265v-127h-265v-154h265v-130h-427v86h-212l-38 -86h-176l336 700h517v-130h-265z"/>
<glyph glyph-name="Ccedilla" horiz-adv-x="788" unicode="Ç" d="M587 428q-6 31 -20.5 57t-37 45.5t-53 30.5t-67.5 11q-51 0 -90.5 -18.5t-66.5 -49t-41 -70.5t-14 -83q0 -46 14.5 -86.5t43 -71t69 -48t93.5 -17.5q30 0 57 9.5t49.5 26t38.5 39t23 48.5h172q-10 -53 -36.5 -99.5t-67.5 -82.5t-95 -58.5t-120 -26.5v-40q13 15 45 15 q34 0 57 -24t23 -61q0 -19 -7 -36.5t-20.5 -31t-34 -22t-47.5 -8.5q-14 0 -32 4t-34 14t-28 27.5t-15 43.5h74q6 -26 35 -26q15 0 24.5 10t9.5 25q0 14 -9.5 24t-23.5 10q-20 0 -30 -17h-65v94q-78 8 -139 40.5t-103 82t-64 112t-22 131.5q0 72 25 138t72.5 117t115.5 81.5 t154 30.5q81 0 144.5 -23t108 -62t70.5 -92t34 -113h-169z"/>
<glyph glyph-name="Egrave" horiz-adv-x="555" unicode="È" d="M131 856l48 106l276 -128l-48 -106zM229 570v-159h265v-127h-265v-154h265v-130h-427v700h427v-130h-265z"/>
<glyph glyph-name="Eacute" horiz-adv-x="555" unicode="É" d="M166 740l-48 106l276 128l48 -106zM229 570v-159h265v-127h-265v-154h265v-130h-427v700h427v-130h-265z"/>
<glyph glyph-name="Ecircumflex" horiz-adv-x="555" unicode="Ê" d="M283 993l197 -164l-76 -84l-120 107l-119 -106l-77 83zM229 570v-159h265v-127h-265v-154h265v-130h-427v700h427v-130h-265z"/>
<glyph glyph-name="Edieresis" horiz-adv-x="555" unicode="Ë" d="M76 852q0 19 7.5 36.5t20 30t29.5 20t37 7.5t37.5 -7.5t30.5 -20t20.5 -30t7.5 -36.5t-7.5 -36t-20.5 -29.5t-30.5 -20t-37.5 -7.5t-37 7.5t-29.5 20t-20 29.5t-7.5 36zM317 852q0 39 27 66.5t67 27.5q20 0 37.5 -7.5t30 -20t20 -30t7.5 -36.5t-7.5 -36t-20 -29.5 t-30 -20t-37.5 -7.5t-37 7.5t-30 20t-20 29.5t-7 36zM229 570v-159h265v-127h-265v-154h265v-130h-427v700h427v-130h-265z"/>
<glyph glyph-name="Igrave" horiz-adv-x="298" unicode="Ì" d="M-13 855l48 106l276 -128l-48 -106zM67 700h164v-700h-164v700z"/>
<glyph glyph-name="Iacute" horiz-adv-x="298" unicode="Í" d="M35 727l-48 106l276 128l48 -106zM67 700h164v-700h-164v700z"/>
<glyph glyph-name="Icircumflex" horiz-adv-x="298" unicode="Î" d="M149 993l197 -164l-76 -84l-120 107l-119 -106l-77 83zM67 700h164v-700h-164v700z"/>
<glyph glyph-name="Idieresis" horiz-adv-x="298" unicode="Ï" d="M-60 852q0 19 7.5 36.5t20 30t29.5 20t37 7.5t37.5 -7.5t30.5 -20t20.5 -30t7.5 -36.5t-7.5 -36t-20.5 -29.5t-30.5 -20t-37.5 -7.5t-37 7.5t-29.5 20t-20 29.5t-7.5 36zM181 852q0 39 27 66.5t67 27.5q20 0 37.5 -7.5t30 -20t20 -30t7.5 -36.5t-7.5 -36t-20 -29.5 t-30 -20t-37.5 -7.5t-37 7.5t-30 20t-20 29.5t-7 36zM67 700h164v-700h-164v700z"/>
<glyph glyph-name="Eth" horiz-adv-x="720" unicode="Ð" d="M324 700q86 0 154 -29.5t114.5 -78.5t71 -112t24.5 -130t-24.5 -130t-71 -112t-114 -78.5t-154.5 -29.5h-257v306h-102v89h102v305h257zM333 306h-104v-166h87q49 0 87.5 17.5t65 47t40.5 67t14 78.5q0 40 -14 78t-40.5 67.5t-65 47t-87.5 17.5h-87v-165h104v-89z"/>
<glyph glyph-name="Ntilde" horiz-adv-x="717" unicode="Ñ" d="M420 884q25 0 40.5 13.5t29.5 32.5l80 -70q-28 -45 -66 -64t-77 -19q-28 0 -49.5 7.5t-39 16t-33 16t-30.5 7.5q-25 0 -39.5 -13t-28.5 -33l-78 77q28 41 64.5 58.5t75.5 17.5q28 0 49 -7.5t38.5 -16t32.5 -16t31 -7.5zM489 244v456h161v-700h-169l-252 450v-450h-162 v700h169z"/>
<glyph glyph-name="Ograve" horiz-adv-x="805" unicode="Ò" d="M228 868l48 106l276 -128l-48 -106zM403 -18q-87 0 -156 30.5t-117 81.5t-73 117.5t-25 138.5t25 138.5t73 117.5t117 81.5t156 30.5t155.5 -30.5t116.5 -81.5t73 -117.5t25 -138.5t-25 -138.5t-73 -117.5t-116.5 -81.5t-155.5 -30.5zM403 128q48 0 86 18.5t64.5 49.5 t40.5 71t14 83t-14 83t-40.5 71t-64.5 49.5t-86 18.5t-86 -18.5t-64.5 -49.5t-40.5 -71t-14 -83t14 -83t40.5 -71t64.5 -49.5t86 -18.5z"/>
<glyph glyph-name="Oacute" horiz-adv-x="805" unicode="Ó" d="M298 740l-48 106l276 128l48 -106zM403 -18q-87 0 -156 30.5t-117 81.5t-73 117.5t-25 138.5t25 138.5t73 117.5t117 81.5t156 30.5t155.5 -30.5t116.5 -81.5t73 -117.5t25 -138.5t-25 -138.5t-73 -117.5t-116.5 -81.5t-155.5 -30.5zM403 128q48 0 86 18.5t64.5 49.5 t40.5 71t14 83t-14 83t-40.5 71t-64.5 49.5t-86 18.5t-86 -18.5t-64.5 -49.5t-40.5 -71t-14 -83t14 -83t40.5 -71t64.5 -49.5t86 -18.5z"/>
<glyph glyph-name="Ocircumflex" horiz-adv-x="805" unicode="Ô" d="M403 993l197 -164l-76 -84l-120 107l-120 -106l-76 83zM403 -18q-87 0 -156 30.5t-117 81.5t-73 117.5t-25 138.5t25 138.5t73 117.5t117 81.5t156 30.5t155.5 -30.5t116.5 -81.5t73 -117.5t25 -138.5t-25 -138.5t-73 -117.5t-116.5 -81.5t-155.5 -30.5zM403 128 q48 0 86 18.5t64.5 49.5t40.5 71t14 83t-14 83t-40.5 71t-64.5 49.5t-86 18.5t-86 -18.5t-64.5 -49.5t-40.5 -71t-14 -83t14 -83t40.5 -71t64.5 -49.5t86 -18.5z"/>
<glyph glyph-name="Otilde" horiz-adv-x="805" unicode="Õ" d="M476 884q25 0 40.5 13.5t29.5 32.5l80 -70q-28 -45 -66 -64t-77 -19q-28 0 -49.5 7.5t-39 16t-33 16t-30.5 7.5q-25 0 -39.5 -13t-28.5 -33l-78 77q28 41 64.5 58.5t75.5 17.5q28 0 49 -7.5t38.5 -16t32.5 -16t31 -7.5zM403 -18q-87 0 -156 30.5t-117 81.5t-73 117.5 t-25 138.5t25 138.5t73 117.5t117 81.5t156 30.5t155.5 -30.5t116.5 -81.5t73 -117.5t25 -138.5t-25 -138.5t-73 -117.5t-116.5 -81.5t-155.5 -30.5zM403 128q48 0 86 18.5t64.5 49.5t40.5 71t14 83t-14 83t-40.5 71t-64.5 49.5t-86 18.5t-86 -18.5t-64.5 -49.5t-40.5 -71 t-14 -83t14 -83t40.5 -71t64.5 -49.5t86 -18.5z"/>
<glyph glyph-name="Odieresis" horiz-adv-x="805" unicode="Ö" d="M427 854q0 39 27 66.5t67 27.5q20 0 37.5 -7.5t30 -20t20 -30t7.5 -36.5t-7.5 -36t-20 -29.5t-30 -20t-37.5 -7.5t-37 7.5t-30 20t-20 29.5t-7 36zM186 854q0 19 7.5 36.5t20 30t29.5 20t37 7.5t37.5 -7.5t30 -20t20 -30t7.5 -36.5t-7.5 -36t-20 -29.5t-30 -20 t-37.5 -7.5t-37 7.5t-29.5 20t-20 29.5t-7.5 36zM403 -18q-87 0 -156 30.5t-117 81.5t-73 117.5t-25 138.5t25 138.5t73 117.5t117 81.5t156 30.5t155.5 -30.5t116.5 -81.5t73 -117.5t25 -138.5t-25 -138.5t-73 -117.5t-116.5 -81.5t-155.5 -30.5zM198 350q0 -43 14 -83 t40.5 -71t64.5 -49.5t86 -18.5t86 18.5t64.5 49.5t40.5 71t14 83t-14 83t-40.5 71t-64.5 49.5t-86 18.5t-86 -18.5t-64.5 -49.5t-40.5 -71t-14 -83z"/>
<glyph glyph-name="multiply" horiz-adv-x="613" unicode="×" d="M411 482l92 -92l-108 -108l106 -105l-87 -86l-105 104l-108 -107l-92 92l108 107l-105 105l86 87l105 -105z"/>
<glyph glyph-name="Oslash" horiz-adv-x="805" unicode="Ø" d="M198 350q0 -51 19.5 -97t56.5 -78l169 391q-18 6 -40 6q-48 0 -86 -18.5t-64.5 -49.5t-40.5 -71t-14 -83zM608 350q0 54 -22 101.5t-62 78.5l-171 -396q11 -3 24.5 -4.5t25.5 -1.5q48 0 86 18.5t64.5 49.5t40.5 71t14 83zM403 -18q-60 0 -111 15l-39 -90l-81 36l38 88 q-43 24 -76 58.5t-55.5 76t-34.5 88.5t-12 96q0 72 25 138.5t73 117.5t117 81.5t156 30.5q27 0 52.5 -3.5t48.5 -9.5l37 84l81 -37l-34 -79q44 -24 78.5 -59t58 -77t36 -89.5t12.5 -97.5q0 -72 -25 -138.5t-73 -117.5t-116.5 -81.5t-155.5 -30.5z"/>
<glyph glyph-name="Ugrave" horiz-adv-x="657" unicode="Ù" d="M176 868l48 106l276 -128l-48 -106zM56 700h162v-460q0 -24 8 -45.5t22.5 -37.5t34.5 -25.5t45 -9.5t45.5 9.5t35 25.5t22.5 37.5t8 45.5v460h162v-461q0 -54 -19 -101t-54.5 -81.5t-86 -54.5t-113.5 -20t-113 20t-85.5 54.5t-54.5 81.5t-19 101v461z"/>
<glyph glyph-name="Uacute" horiz-adv-x="657" unicode="Ú" d="M198 740l-48 106l276 128l48 -106zM56 700h162v-460q0 -24 8 -45.5t22.5 -37.5t34.5 -25.5t45 -9.5t45.5 9.5t35 25.5t22.5 37.5t8 45.5v460h162v-461q0 -54 -19 -101t-54.5 -81.5t-86 -54.5t-113.5 -20t-113 20t-85.5 54.5t-54.5 81.5t-19 101v461z"/>
<glyph glyph-name="Ucircumflex" horiz-adv-x="657" unicode="Û" d="M325 993l196 -164l-76 -84l-120 107l-119 -106l-77 83zM56 700h162v-460q0 -24 8 -45.5t22.5 -37.5t34.5 -25.5t45 -9.5t45.5 9.5t35 25.5t22.5 37.5t8 45.5v460h162v-461q0 -54 -19 -101t-54.5 -81.5t-86 -54.5t-113.5 -20t-113 20t-85.5 54.5t-54.5 81.5t-19 101v461z "/>
<glyph glyph-name="Udieresis" horiz-adv-x="657" unicode="Ü" d="M111 852q0 19 7.5 36.5t20 30t29.5 20t37 7.5t37.5 -7.5t30 -20t20 -30t7.5 -36.5t-7.5 -36t-20 -29.5t-30 -20t-37.5 -7.5t-37 7.5t-29.5 20t-20 29.5t-7.5 36zM352 852q0 39 27 66.5t67 27.5q20 0 37.5 -7.5t30 -20t20 -30t7.5 -36.5t-7.5 -36t-20 -29.5t-30 -20 t-37.5 -7.5t-37 7.5t-30 20t-20 29.5t-7 36zM56 700h162v-460q0 -24 8 -45.5t22.5 -37.5t34.5 -25.5t45 -9.5t45.5 9.5t35 25.5t22.5 37.5t8 45.5v460h162v-461q0 -54 -19 -101t-54.5 -81.5t-86 -54.5t-113.5 -20t-113 20t-85.5 54.5t-54.5 81.5t-19 101v461z"/>
<glyph glyph-name="Yacute" horiz-adv-x="641" unicode="Ý" d="M246 738l-48 105l276 128l48 -105zM302 0h-179l129 263l-248 437h189l149 -275l128 275h179z"/>
<glyph glyph-name="Thorn" horiz-adv-x="539" unicode="Þ" d="M64 700h148v-115h44q63 0 111.5 -20t81.5 -53t50 -76.5t17 -90.5t-17 -90.5t-50 -76.5t-81.5 -53t-111.5 -20h-44v-105h-148v700zM212 458v-226h44q27 0 47.5 9.5t34.5 25t21.5 36t7.5 42.5t-7.5 42.5t-21.5 36t-34.5 25t-47.5 9.5h-44z"/>
<glyph glyph-name="germandbls" horiz-adv-x="593" unicode="ß" d="M241 119q15 -4 33.5 -6t27.5 -2q19 0 36.5 6.5t31 18.5t21.5 30.5t8 42.5q0 16 -6 33t-18 31t-31 23t-45 9h-29v122h27q50 0 71 26t21 62q0 39 -26.5 60.5t-62.5 21.5q-42 0 -65 -29t-23 -77v-491h-158v491q0 45 14.5 85.5t44.5 71t76.5 49t111.5 18.5q48 0 92 -12 t77.5 -36.5t54 -61.5t20.5 -86q0 -62 -32 -100.5t-77 -54.5q24 -9 45.5 -24.5t38 -37t26.5 -48.5t10 -58q0 -52 -18 -91t-48 -65.5t-70.5 -39.5t-85.5 -13q-33 0 -55.5 4t-37.5 9v119z"/>
<glyph glyph-name="agrave" unicode="à" d="M120 637l48 106l276 -128l-48 -106zM302 118q26 0 47 10t36 26.5t23.5 39t8.5 47.5t-8.5 47t-23.5 39t-36 27t-47 10t-47 -10t-36 -27t-23.5 -39t-8.5 -47t8.5 -47.5t23.5 -39t36 -26.5t47 -10zM570 482v-482h-153v68q-9 -17 -24 -31.5t-34.5 -25t-42.5 -17t-46 -6.5 q-52 0 -95.5 19.5t-74.5 53t-48 80t-17 100.5t17 100.5t48 80t74.5 53t95.5 19.5q23 0 46 -6.5t42.5 -17.5t34.5 -26t24 -31v69h153z"/>
<glyph glyph-name="aacute" unicode="á" d="M172 509l-49 106l276 128l49 -106zM302 118q26 0 47 10t36 26.5t23.5 39t8.5 47.5t-8.5 47t-23.5 39t-36 27t-47 10t-47 -10t-36 -27t-23.5 -39t-8.5 -47t8.5 -47.5t23.5 -39t36 -26.5t47 -10zM570 482v-482h-153v68q-9 -17 -24 -31.5t-34.5 -25t-42.5 -17t-46 -6.5 q-52 0 -95.5 19.5t-74.5 53t-48 80t-17 100.5t17 100.5t48 80t74.5 53t95.5 19.5q23 0 46 -6.5t42.5 -17.5t34.5 -26t24 -31v69h153z"/>
<glyph glyph-name="acircumflex" unicode="â" d="M313 781l197 -164l-76 -84l-120 107l-119 -106l-77 83zM302 118q26 0 47 10t36 26.5t23.5 39t8.5 47.5t-8.5 47t-23.5 39t-36 27t-47 10t-47 -10t-36 -27t-23.5 -39t-8.5 -47t8.5 -47.5t23.5 -39t36 -26.5t47 -10zM570 482v-482h-153v68q-9 -17 -24 -31.5t-34.5 -25 t-42.5 -17t-46 -6.5q-52 0 -95.5 19.5t-74.5 53t-48 80t-17 100.5t17 100.5t48 80t74.5 53t95.5 19.5q23 0 46 -6.5t42.5 -17.5t34.5 -26t24 -31v69h153z"/>
<glyph glyph-name="atilde" unicode="ã" d="M397 680q25 0 40.5 13t28.5 33l81 -71q-28 -44 -66 -63.5t-77 -19.5q-28 0 -49.5 7.5t-39 16t-33 16t-30.5 7.5q-25 0 -40 -13t-29 -33l-78 77q29 41 65 58.5t76 17.5q28 0 49 -7t38.5 -16t32.5 -16t31 -7zM302 118q26 0 47 10t36 26.5t23.5 39t8.5 47.5t-8.5 47 t-23.5 39t-36 27t-47 10t-47 -10t-36 -27t-23.5 -39t-8.5 -47t8.5 -47.5t23.5 -39t36 -26.5t47 -10zM570 482v-482h-153v68q-9 -17 -24 -31.5t-34.5 -25t-42.5 -17t-46 -6.5q-52 0 -95.5 19.5t-74.5 53t-48 80t-17 100.5t17 100.5t48 80t74.5 53t95.5 19.5q23 0 46 -6.5 t42.5 -17.5t34.5 -26t24 -31v69h153z"/>
<glyph glyph-name="adieresis" unicode="ä" d="M179 537q-20 0 -37 7.5t-29.5 20t-20 29.5t-7.5 36t7.5 36.5t20 30t29.5 20t37 7.5t37.5 -7.5t30 -20t20 -30t7.5 -36.5t-7.5 -36t-20 -29.5t-30 -20t-37.5 -7.5zM420 537q-20 0 -37 7.5t-30 20t-20 29.5t-7 36q0 39 27 66.5t67 27.5q20 0 37.5 -7.5t30 -20t20 -30 t7.5 -36.5t-7.5 -36t-20 -29.5t-30 -20t-37.5 -7.5zM302 118q26 0 47 10t36 26.5t23.5 39t8.5 47.5t-8.5 47t-23.5 39t-36 27t-47 10t-47 -10t-36 -27t-23.5 -39t-8.5 -47t8.5 -47.5t23.5 -39t36 -26.5t47 -10zM417 0v68q-9 -17 -24 -31.5t-34.5 -25t-42.5 -17t-46 -6.5 q-52 0 -95.5 19.5t-74.5 53t-48 80t-17 100.5t17 100.5t48 80t74.5 53t95.5 19.5q23 0 46 -6.5t42.5 -17.5t34.5 -26t24 -31v69h153v-482h-153z"/>
<glyph glyph-name="aring" unicode="å" d="M307 528q-29 0 -54 11t-43.5 30t-29.5 44t-11 53q0 29 11 54t29.5 44t43.5 29.5t54 10.5t54 -11t44 -30t29.5 -44t10.5 -53t-10.5 -53t-29.5 -44t-44 -30t-54 -11zM307 726q-25 0 -41.5 -17.5t-16.5 -42.5q0 -23 17 -40t41 -17t41 17t17 42q0 23 -16 40.5t-42 17.5z M302 118q26 0 47 10t36 26.5t23.5 39t8.5 47.5t-8.5 47t-23.5 39t-36 27t-47 10t-47 -10t-36 -27t-23.5 -39t-8.5 -47t8.5 -47.5t23.5 -39t36 -26.5t47 -10zM570 482v-482h-153v68q-9 -17 -24 -31.5t-34.5 -25t-42.5 -17t-46 -6.5q-52 0 -95.5 19.5t-74.5 53t-48 80 t-17 100.5t17 100.5t48 80t74.5 53t95.5 19.5q23 0 46 -6.5t42.5 -17.5t34.5 -26t24 -31v69h153z"/>
<glyph glyph-name="ae" horiz-adv-x="961" unicode="æ" d="M555 482v-12q25 11 54.5 18t64.5 7q57 0 102.5 -18t78 -48t50 -70t17.5 -84q0 -15 -0.5 -32t-4.5 -39h-346q0 -22 6 -41.5t18.5 -34t32.5 -23t49 -8.5q40 0 60.5 16t28.5 39h150q-6 -34 -24.5 -64t-49 -52.5t-72 -35.5t-92.5 -13q-36 0 -66.5 7t-56.5 19v-13h-138v68 q-9 -17 -24 -31.5t-34.5 -25t-42.5 -17t-46 -6.5q-52 0 -95.5 19.5t-74.5 53t-48 80t-17 100.5t17 100.5t48 80t74.5 53t95.5 19.5q23 0 46 -6.5t42.5 -17.5t34.5 -26t24 -31v69h138zM672 387q-42 0 -70.5 -24.5t-29.5 -70.5h199q0 43 -27 69t-72 26zM302 118q26 0 47 10 t36 26.5t23.5 39t8.5 47.5t-8.5 47.5t-23.5 39.5t-36.5 26.5t-46.5 9.5q-26 0 -47 -10t-36 -27t-23.5 -39t-8.5 -47t8.5 -47.5t23.5 -39t36 -26.5t47 -10z"/>
<glyph glyph-name="ccedilla" horiz-adv-x="575" unicode="ç" d="M237 -8q-50 9 -88.5 32t-64 56.5t-38.5 74.5t-13 86q0 50 16.5 96t49.5 81t81.5 56t111.5 21q61 0 106 -17t75.5 -45t47 -64.5t20.5 -75.5h-153q-5 32 -26.5 52t-68.5 20q-27 0 -47.5 -10t-33.5 -27t-19.5 -39.5t-6.5 -47.5t6.5 -47.5t20 -39.5t35 -27t51.5 -10 q40 0 60 16.5t30 47.5h153q-6 -39 -22.5 -73t-45 -59.5t-68 -41.5t-91.5 -19v-42q7 7 18 11t28 4q33 0 56 -24t23 -61q0 -19 -7 -36.5t-20.5 -31t-34 -22t-47.5 -8.5q-14 0 -31.5 4t-33.5 14t-28 27.5t-15 43.5h74q6 -26 34 -26q15 0 25 10t10 25q0 14 -9.5 24t-23.5 10 q-21 0 -31 -17h-65v99z"/>
<glyph glyph-name="egrave" horiz-adv-x="577" unicode="è" d="M149 637l48 106l276 -128l-48 -106zM186 204q1 -22 6.5 -41.5t18 -34t32.5 -23t50 -8.5q40 0 60.5 16t28.5 39h150q-5 -34 -23.5 -64t-49 -52.5t-72 -35.5t-93.5 -13q-63 0 -111.5 18.5t-81.5 52.5t-50 80.5t-17 102.5q0 53 16.5 99t49 80.5t80 54.5t110.5 20 q57 0 102.5 -18t78 -48t50 -70t17.5 -84q0 -15 -0.5 -32t-4.5 -39h-347zM289 393q-45 0 -74 -26t-29 -75h202q0 47 -27.5 74t-71.5 27z"/>
<glyph glyph-name="eacute" horiz-adv-x="577" unicode="é" d="M168 509l-48 106l276 128l48 -106zM186 204q1 -22 6.5 -41.5t18 -34t32.5 -23t50 -8.5q40 0 60.5 16t28.5 39h150q-5 -34 -23.5 -64t-49 -52.5t-72 -35.5t-93.5 -13q-63 0 -111.5 18.5t-81.5 52.5t-50 80.5t-17 102.5q0 53 16.5 99t49 80.5t80 54.5t110.5 20 q57 0 102.5 -18t78 -48t50 -70t17.5 -84q0 -15 -0.5 -32t-4.5 -39h-347zM289 393q-45 0 -74 -26t-29 -75h202q0 47 -27.5 74t-71.5 27z"/>
<glyph glyph-name="ecircumflex" horiz-adv-x="577" unicode="ê" d="M292 781l197 -164l-76 -84l-120 107l-120 -106l-76 83zM186 204q1 -22 6.5 -41.5t18 -34t32.5 -23t50 -8.5q40 0 60.5 16t28.5 39h150q-5 -34 -23.5 -64t-49 -52.5t-72 -35.5t-93.5 -13q-63 0 -111.5 18.5t-81.5 52.5t-50 80.5t-17 102.5q0 53 16.5 99t49 80.5t80 54.5 t110.5 20q57 0 102.5 -18t78 -48t50 -70t17.5 -84q0 -15 -0.5 -32t-4.5 -39h-347zM289 393q-45 0 -74 -26t-29 -75h202q0 47 -27.5 74t-71.5 27z"/>
<glyph glyph-name="edieresis" horiz-adv-x="577" unicode="ë" d="M73 630q0 39 27 66.5t67 27.5q20 0 37.5 -7.5t30 -20t20 -30t7.5 -36.5t-7.5 -36t-20 -29.5t-30 -20t-37.5 -7.5t-37 7.5t-30 20t-20 29.5t-7 36zM313 630q0 19 7.5 36.5t20 30t29.5 20t37 7.5t37.5 -7.5t30 -20t20 -30t7.5 -36.5t-7.5 -36t-20 -29.5t-30 -20t-37.5 -7.5 t-37 7.5t-29.5 20t-20 29.5t-7.5 36zM186 204q1 -22 6.5 -41.5t18 -34t32.5 -23t50 -8.5q40 0 60.5 16t28.5 39h150q-5 -34 -23.5 -64t-49 -52.5t-72 -35.5t-93.5 -13q-63 0 -111.5 18.5t-81.5 52.5t-50 80.5t-17 102.5q0 53 16.5 99t49 80.5t80 54.5t110.5 20 q57 0 102.5 -18t78 -48t50 -70t17.5 -84q0 -15 -0.5 -32t-4.5 -39h-347zM289 393q-45 0 -74 -26t-29 -75h202q0 47 -27.5 74t-71.5 27z"/>
<glyph glyph-name="igrave" horiz-adv-x="283" unicode="ì" d="M-20 650l48 106l276 -128l-48 -106zM65 482h153v-482h-153v482z"/>
<glyph glyph-name="iacute" horiz-adv-x="283" unicode="í" d="M28 522l-48 106l276 128l48 -106zM65 482h153v-482h-153v482z"/>
<glyph glyph-name="icircumflex" horiz-adv-x="283" unicode="î" d="M142 781l196 -164l-76 -84l-120 107l-119 -106l-77 83zM65 482h153v-482h-153v482z"/>
<glyph glyph-name="idieresis" horiz-adv-x="283" unicode="ï" d="M-54 630q0 19 7.5 36.5t20 30t29.5 20t37 7.5t37.5 -7.5t30.5 -20t20.5 -30t7.5 -36.5t-7.5 -36t-20.5 -29.5t-30.5 -20t-37.5 -7.5t-37 7.5t-29.5 20t-20 29.5t-7.5 36zM160 630q0 19 7.5 36.5t20 30t29.5 20t37 7.5t37.5 -7.5t30 -20t20 -30t7.5 -36.5t-7.5 -36 t-20 -29.5t-30 -20t-37.5 -7.5t-37 7.5t-29.5 20t-20 29.5t-7.5 36zM65 482h153v-482h-153v482z"/>
<glyph glyph-name="eth" horiz-adv-x="596" unicode="ð" d="M297 -15q-62 0 -111.5 20.5t-84 55t-53 80.5t-18.5 98q0 49 16.5 93t47 77.5t74.5 55t99 25.5h6l-33 51l-97 -47l-35 76l85 41l-67 106h182l27 -45l83 40l35 -74l-72 -36l141 -218q20 -32 31.5 -68.5t11.5 -76.5q0 -52 -18.5 -98t-53 -80.5t-84 -55t-112.5 -20.5z M297 116q26 0 47.5 10t36.5 26.5t23.5 39t8.5 47.5t-8.5 47.5t-23.5 39.5t-36.5 26.5t-47.5 9.5t-47 -9.5t-36 -26.5t-23 -39.5t-8 -47.5t8 -47.5t23 -39t36 -26.5t47 -10z"/>
<glyph glyph-name="ntilde" horiz-adv-x="607" unicode="ñ" d="M381 680q25 0 40.5 13t28.5 33l81 -71q-28 -44 -66 -63.5t-77 -19.5q-28 0 -49.5 7.5t-39 16t-33 16t-30.5 7.5q-25 0 -40 -13t-29 -33l-78 77q29 41 65 58.5t76 17.5q28 0 49 -7t38.5 -16t32.5 -16t31 -7zM65 482h153v-70q20 39 60.5 60.5t97.5 21.5q47 0 81 -14.5 t54 -40.5q23 -28 30.5 -64.5t7.5 -88.5v-286h-153v247q0 52 -18.5 84.5t-66.5 32.5q-47 0 -70 -33t-23 -89v-242h-153v482z"/>
<glyph glyph-name="ograve" horiz-adv-x="599" unicode="ò" d="M147 637l48 106l276 -128l-48 -106zM299 -13q-62 0 -111.5 20.5t-84 55t-53 80.5t-18.5 98t18.5 98t53 80.5t84 55t111.5 20.5q63 0 112.5 -20.5t84 -55t53 -80.5t18.5 -98t-18.5 -98t-53 -80.5t-84 -55t-112.5 -20.5zM299 118q26 0 47.5 9.5t36.5 26.5t23.5 39t8.5 48 q0 25 -8.5 47.5t-23.5 39t-36.5 26.5t-47.5 10t-47 -10t-36 -26.5t-23 -39t-8 -47.5q0 -26 8 -48t23 -39t36 -26.5t47 -9.5z"/>
<glyph glyph-name="oacute" horiz-adv-x="599" unicode="ó" d="M163 509l-49 106l276 128l49 -106zM299 -13q-62 0 -111.5 20.5t-84 55t-53 80.5t-18.5 98t18.5 98t53 80.5t84 55t111.5 20.5q63 0 112.5 -20.5t84 -55t53 -80.5t18.5 -98t-18.5 -98t-53 -80.5t-84 -55t-112.5 -20.5zM299 118q26 0 47.5 9.5t36.5 26.5t23.5 39t8.5 48 q0 25 -8.5 47.5t-23.5 39t-36.5 26.5t-47.5 10t-47 -10t-36 -26.5t-23 -39t-8 -47.5q0 -26 8 -48t23 -39t36 -26.5t47 -9.5z"/>
<glyph glyph-name="ocircumflex" horiz-adv-x="599" unicode="ô" d="M298 781l197 -164l-76 -84l-120 107l-119 -106l-77 83zM299 -13q-62 0 -111.5 20.5t-84 55t-53 80.5t-18.5 98t18.5 98t53 80.5t84 55t111.5 20.5q63 0 112.5 -20.5t84 -55t53 -80.5t18.5 -98t-18.5 -98t-53 -80.5t-84 -55t-112.5 -20.5zM299 118q26 0 47.5 9.5 t36.5 26.5t23.5 39t8.5 48q0 25 -8.5 47.5t-23.5 39t-36.5 26.5t-47.5 10t-47 -10t-36 -26.5t-23 -39t-8 -47.5q0 -26 8 -48t23 -39t36 -26.5t47 -9.5z"/>
<glyph glyph-name="otilde" horiz-adv-x="599" unicode="õ" d="M370 680q25 0 40.5 13t29.5 33l81 -71q-29 -44 -67 -63.5t-77 -19.5q-28 0 -49.5 7.5t-39 16t-33 16t-30.5 7.5q-25 0 -39.5 -13t-28.5 -33l-78 77q28 41 64.5 58.5t76.5 17.5q28 0 49 -7t38.5 -16t32.5 -16t30 -7zM299 -13q-62 0 -111.5 20.5t-84 55t-53 80.5t-18.5 98 t18.5 98t53 80.5t84 55t111.5 20.5q63 0 112.5 -20.5t84 -55t53 -80.5t18.5 -98t-18.5 -98t-53 -80.5t-84 -55t-112.5 -20.5zM299 118q26 0 47.5 9.5t36.5 26.5t23.5 39t8.5 48q0 25 -8.5 47.5t-23.5 39t-36.5 26.5t-47.5 10t-47 -10t-36 -26.5t-23 -39t-8 -47.5 q0 -26 8 -48t23 -39t36 -26.5t47 -9.5z"/>
<glyph glyph-name="odieresis" horiz-adv-x="599" unicode="ö" d="M418 537q-20 0 -37 7.5t-30 20t-20 29.5t-7 36q0 39 27 66.5t67 27.5q20 0 37.5 -7.5t30 -20t20 -30t7.5 -36.5t-7.5 -36t-20 -29.5t-30 -20t-37.5 -7.5zM177 537q-20 0 -37 7.5t-29.5 20t-20 29.5t-7.5 36t7.5 36.5t20 30t29.5 20t37 7.5t37.5 -7.5t30 -20t20 -30 t7.5 -36.5t-7.5 -36t-20 -29.5t-30 -20t-37.5 -7.5zM567 241q0 -52 -18.5 -98t-53 -80.5t-84 -55t-112.5 -20.5q-62 0 -111.5 20.5t-84 55t-53 80.5t-18.5 98t18.5 98t53 80.5t84 55t111.5 20.5q63 0 112.5 -20.5t84 -55t53 -80.5t18.5 -98zM185 241q0 -26 8 -48t23 -39 t36 -26.5t47 -9.5t47.5 9.5t36.5 26.5t23.5 39t8.5 48q0 25 -8.5 47.5t-23.5 39t-36.5 26.5t-47.5 10t-47 -10t-36 -26.5t-23 -39t-8 -47.5z"/>
<glyph glyph-name="divide" horiz-adv-x="613" unicode="÷" d="M212 437q0 19 7.5 36.5t20 30t29.5 20t37 7.5t37.5 -7.5t30 -20t20 -30t7.5 -36.5t-7.5 -36t-20 -29.5t-30 -20t-37.5 -7.5t-37 7.5t-29.5 20t-20 29.5t-7.5 36zM93 190v122h427v-122h-427zM212 71q0 39 27.5 66t66.5 27q40 0 67.5 -27t27.5 -66q0 -19 -7.5 -36 t-20 -29.5t-30 -20t-37.5 -7.5t-37 7.5t-29.5 20t-20 29.5t-7.5 36z"/>
<glyph glyph-name="oslash" horiz-adv-x="599" unicode="ø" d="M185 241q0 -27 9 -51t26 -41l93 213q-4 1 -7 1.5t-7 0.5q-26 0 -47 -10t-36 -26.5t-23 -39t-8 -47.5zM299 118q26 0 47.5 9.5t36.5 26.5t23.5 39t8.5 48q0 29 -10.5 54t-30.5 42l-95 -218q5 -1 10 -1h10zM431 465q66 -32 101 -92t35 -132q0 -52 -18.5 -98t-53 -80.5 t-84 -55t-112.5 -20.5q-40 0 -76 9l-31 -74l-61 26l31 72q-63 32 -96.5 91t-33.5 130q0 52 18.5 98t53 80.5t84 55t111.5 20.5q19 0 36 -2.5t34 -5.5l32 74l60 -26z"/>
<glyph glyph-name="ugrave" horiz-adv-x="607" unicode="ù" d="M146 637l48 106l276 -128l-48 -106zM542 0h-153v69q-20 -38 -60.5 -59.5t-97.5 -21.5q-47 0 -81 14.5t-54 40.5q-23 28 -30 64.5t-7 88.5v286h152v-247q0 -52 18.5 -84.5t66.5 -32.5t70.5 33t22.5 89v242h153v-482z"/>
<glyph glyph-name="uacute" horiz-adv-x="607" unicode="ú" d="M190 509l-48 106l276 128l48 -106zM542 0h-153v69q-20 -38 -60.5 -59.5t-97.5 -21.5q-47 0 -81 14.5t-54 40.5q-23 28 -30 64.5t-7 88.5v286h152v-247q0 -52 18.5 -84.5t66.5 -32.5t70.5 33t22.5 89v242h153v-482z"/>
<glyph glyph-name="ucircumflex" horiz-adv-x="607" unicode="û" d="M305 781l197 -164l-76 -84l-120 107l-119 -106l-77 83zM542 0h-153v69q-20 -38 -60.5 -59.5t-97.5 -21.5q-47 0 -81 14.5t-54 40.5q-23 28 -30 64.5t-7 88.5v286h152v-247q0 -52 18.5 -84.5t66.5 -32.5t70.5 33t22.5 89v242h153v-482z"/>
<glyph glyph-name="udieresis" horiz-adv-x="607" unicode="ü" d="M83 630q0 19 7.5 36.5t20 30t29.5 20t37 7.5t37.5 -7.5t30.5 -20t20.5 -30t7.5 -36.5t-7.5 -36t-20.5 -29.5t-30.5 -20t-37.5 -7.5t-37 7.5t-29.5 20t-20 29.5t-7.5 36zM324 630q0 39 27 66.5t67 27.5q20 0 37.5 -7.5t30 -20t20 -30t7.5 -36.5t-7.5 -36t-20 -29.5 t-30 -20t-37.5 -7.5t-37 7.5t-30 20t-20 29.5t-7 36zM542 0h-153v69q-20 -38 -60.5 -59.5t-97.5 -21.5q-47 0 -81 14.5t-54 40.5q-23 28 -30 64.5t-7 88.5v286h152v-247q0 -52 18.5 -84.5t66.5 -32.5t70.5 33t22.5 89v242h153v-482z"/>
<glyph glyph-name="yacute" horiz-adv-x="615" unicode="ý" d="M194 509l-49 106l276 128l49 -106zM303 -231q-59 0 -102.5 12t-75.5 38q-29 23 -47.5 59t-18.5 85h153q2 -41 28.5 -62.5t64.5 -21.5q44 0 69 21.5t25 77.5v99q-20 -39 -59.5 -60t-94.5 -21q-48 0 -83.5 16t-55.5 42q-23 28 -30 62.5t-7 86.5v279h152v-247 q0 -52 18.5 -84.5t66.5 -32.5t70.5 33t22.5 89v242h153v-494q0 -57 -18 -99t-48 -68q-33 -27 -76.5 -39.5t-106.5 -12.5z"/>
<glyph glyph-name="thorn" horiz-adv-x="632" unicode="þ" d="M335 118q26 0 47 10t36 26.5t23.5 39t8.5 47.5t-8.5 47t-23.5 39t-36 27t-47 10t-47 -10t-36 -27t-23.5 -39t-8.5 -47t8.5 -47.5t23.5 -39t36 -26.5t47 -10zM67 -218v918h153v-287q9 16 24 31t34.5 26t42.5 17.5t46 6.5q52 0 95.5 -19.5t74.5 -53t48 -80t17 -100.5 t-17 -100.5t-48 -80t-74.5 -53t-95.5 -19.5q-23 0 -46 6.5t-42.5 17t-34.5 25t-24 31.5v-286h-153z"/>
</font>
</defs>
</svg>
