<?xml version="1.0" encoding="iso-8859-1"?>
<!-- Generator: Adobe Illustrator 22.1.0, SVG Export Plug-In . SVG Version: 6.00 Build 0)  -->
<svg xmlns="http://www.w3.org/2000/svg" xmlns:xlink="http://www.w3.org/1999/xlink" version="1.1" id="Layer_3" x="0px" y="0px" viewBox="0 0 64 64" style="enable-background:new 0 0 64 64;" xml:space="preserve" width="512" height="512" fill="#FD473C">
<g>
	<path d="M59,31h-2v-4c0-3.14-1.823-5.856-4.463-7.165C54.027,18.743,55,16.985,55,15c0-3.309-2.691-6-6-6s-6,2.691-6,6   c0,1.985,0.973,3.743,2.463,4.835C42.823,21.144,41,23.86,41,27v4H5c-2.206,0-4,1.794-4,4v24c0,2.206,1.794,4,4,4h54   c2.206,0,4-1.794,4-4V35C63,32.794,61.206,31,59,31z M45,15c0-2.206,1.794-4,4-4s4,1.794,4,4s-1.794,4-4,4S45,17.206,45,15z M43,27   c0-3.309,2.691-6,6-6s6,2.691,6,6v4H43V27z M61,59c0,1.103-0.897,2-2,2H5c-1.103,0-2-0.897-2-2V35c0-1.103,0.897-2,2-2h37h14h3   c1.103,0,2,0.897,2,2V59z"/>
	<path d="M50,35H8c-1.654,0-3,1.346-3,3v18c0,1.654,1.346,3,3,3h42c1.654,0,3-1.346,3-3V38C53,36.346,51.654,35,50,35z M51,56   c0,0.552-0.449,1-1,1H8c-0.551,0-1-0.448-1-1V38c0-0.552,0.449-1,1-1h42c0.551,0,1,0.448,1,1V56z"/>
	<circle cx="57" cy="47" r="2"/>
	<path d="M10,23h22c1.654,0,3-1.346,3-3v-2h5c0.404,0,0.769-0.243,0.924-0.617s0.069-0.804-0.217-1.09L35,10.586V4   c0-1.654-1.346-3-3-3H10C8.346,1,7,2.346,7,4v16C7,21.654,8.346,23,10,23z M9,4c0-0.552,0.449-1,1-1h22c0.551,0,1,0.448,1,1v7   c0,0.266,0.105,0.52,0.293,0.707L37.586,16H34c-0.552,0-1,0.447-1,1v3c0,0.552-0.449,1-1,1H10c-0.551,0-1-0.448-1-1V4z"/>
	<path d="M12,11h18c0.552,0,1-0.447,1-1V6c0-0.553-0.448-1-1-1H12c-0.552,0-1,0.447-1,1v4C11,10.553,11.448,11,12,11z M13,7h16v2H13   V7z"/>
	<rect x="11" y="13" width="10" height="2"/>
	<rect x="11" y="17" width="20" height="2"/>
	<path d="M17,39c-4.411,0-8,3.589-8,8s3.589,8,8,8s8-3.589,8-8S21.411,39,17,39z M11,47c0-2.967,2.167-5.431,5-5.91V47   c0,0.266,0.105,0.52,0.293,0.707l4.178,4.178C19.49,52.584,18.294,53,17,53C13.691,53,11,50.309,11,47z M21.885,50.471L18,46.586   V41.09c2.833,0.478,5,2.942,5,5.91C23,48.294,22.584,49.49,21.885,50.471z"/>
	<path d="M47,50c0-0.553-0.448-1-1-1h-3v-1c0-0.553-0.448-1-1-1h-3v-3c0-0.553-0.448-1-1-1h-3v-3c0-0.553-0.448-1-1-1h-4   c-0.552,0-1,0.447-1,1v13h-2v2h3h4h4h4h4h3v-2h-2V50z M31,41h2v3v9h-2V41z M35,45h2v3v5h-2V45z M39,49h2v1v3h-2V49z M43,53v-2h2v2   H43z"/>
</g>
</svg>
